<svg id="Layer_5" enable-background="new 0 0 64 64" height="512" viewBox="0 0 64 64" width="512" xmlns="http://www.w3.org/2000/svg"><g><g><g><path d="m20 26v2h-12v-2c0-1.1.9-2 2-2h8c1.1 0 2 .9 2 2z" fill="#fcd770"/></g><g><path d="m36 26v2h-12v-2c0-1.1.9-2 2-2h8c1.1 0 2 .9 2 2z" fill="#fcd770"/></g><g><path d="m58 56v2c0 2.21-1.79 4-4 4h-44c-2.21 0-4-1.79-4-4v-2z" fill="#969faa"/></g><g><path d="m62 32v20c0 2.21-1.79 4-4 4h-52c-2.21 0-4-1.79-4-4v-20c0-2.21 1.79-4 4-4h2 12 4 12 22c2.21 0 4 1.79 4 4z" fill="#ccd1d9"/></g><g><path d="m58 33v18c0 .55-.45 1-1 1h-50c-.55 0-1-.45-1-1v-18c0-.55.45-1 1-1h50c.55 0 1 .45 1 1z" fill="#69d6f4"/></g><g><path d="m61.73 7.27-2.83 2.83c-5.47-5.47-14.33-5.47-19.8 0l-2.83-2.83c7.03-7.03 18.43-7.03 25.46 0z" fill="#ff826e"/></g><g><path d="m56.07 12.93-2.83 2.83c-2.34-2.35-6.14-2.35-8.48 0l-2.83-2.83c3.9-3.91 10.24-3.91 14.14 0z" fill="#ff826e"/></g><g><circle cx="49" cy="20" fill="#ff826e" r="2"/></g></g><g><path d="m29 39c0-2.206-1.794-4-4-4s-4 1.794-4 4c0 1.201.542 2.266 1.382 3-.84.734-1.382 1.799-1.382 3 0 2.206 1.794 4 4 4s4-1.794 4-4c0-1.201-.542-2.266-1.382-3 .84-.734 1.382-1.799 1.382-3zm-2 6c0 1.103-.897 2-2 2s-2-.897-2-2 .897-2 2-2 2 .897 2 2zm-4-6c0-1.103.897-2 2-2s2 .897 2 2-.897 2-2 2-2-.897-2-2z"/><path d="m31 37h2v2h-2z"/><path d="m31 44h2v2h-2z"/><path d="m39 35c-2.206 0-4 1.794-4 4v6c0 2.206 1.794 4 4 4s4-1.794 4-4v-6c0-2.206-1.794-4-4-4zm2 10c0 1.103-.897 2-2 2s-2-.897-2-2v-6c0-1.103.897-2 2-2s2 .897 2 2z"/><path d="m49 35c-2.206 0-4 1.794-4 4v6c0 2.206 1.794 4 4 4s4-1.794 4-4v-6c0-2.206-1.794-4-4-4zm2 10c0 1.103-.897 2-2 2s-2-.897-2-2v-6c0-1.103.897-2 2-2s2 .897 2 2z"/><path d="m15 35c-2.206 0-4 1.794-4 4v6c0 2.206 1.794 4 4 4s4-1.794 4-4v-6c0-2.206-1.794-4-4-4zm2 10c0 1.103-.897 2-2 2s-2-.897-2-2v-6c0-1.103.897-2 2-2s2 .897 2 2z"/><path d="m57 31h-50c-1.103 0-2 .897-2 2v18c0 1.103.897 2 2 2h50c1.103 0 2-.897 2-2v-18c0-1.103-.897-2-2-2zm-50 20v-18h50l.002 18z"/><path d="m58 27h-21v-1c0-1.654-1.346-3-3-3h-8c-1.654 0-3 1.346-3 3v1h-2v-1c0-1.654-1.346-3-3-3h-8c-1.654 0-3 1.346-3 3v1h-1c-2.757 0-5 2.243-5 5v20c0 2.414 1.721 4.434 4 4.899v1.101c0 2.757 2.243 5 5 5h44c2.757 0 5-2.243 5-5v-1.101c2.279-.465 4-2.484 4-4.899v-20c0-2.757-2.243-5-5-5zm-33-1c0-.552.448-1 1-1h8c.552 0 1 .448 1 1v1h-10zm-16 0c0-.552.448-1 1-1h8c.552 0 1 .448 1 1v1h-10zm45 35h-44c-1.654 0-3-1.346-3-3v-1h50v1c0 1.654-1.346 3-3 3zm7-9c0 1.654-1.346 3-3 3h-52c-1.654 0-3-1.346-3-3v-20c0-1.654 1.346-3 3-3h52c1.654 0 3 1.346 3 3z"/><path d="m46 20c0 1.654 1.346 3 3 3s3-1.346 3-3-1.346-3-3-3-3 1.346-3 3zm4 0c0 .552-.448 1-1 1s-1-.448-1-1 .448-1 1-1 1 .448 1 1z"/><path d="m53.242 17.172 4.243-4.243-.707-.707c-2.077-2.078-4.84-3.222-7.778-3.222s-5.701 1.144-7.778 3.222l-.707.707 4.243 4.243.707-.707c.944-.944 2.2-1.465 3.535-1.465s2.591.521 3.535 1.465zm-8.434-2.778-1.426-1.426c3.273-2.619 7.963-2.619 11.236 0l-1.426 1.426c-1.203-.905-2.66-1.394-4.192-1.394s-2.989.489-4.192 1.394z"/><path d="m39.808 10.808c2.455-2.455 5.719-3.808 9.192-3.808s6.737 1.353 9.192 3.808l.707.707 4.242-4.242-.707-.707c-3.588-3.589-8.359-5.566-13.434-5.566s-9.846 1.977-13.435 5.565l-.707.707 4.242 4.242zm9.192-7.808c4.206 0 8.179 1.517 11.293 4.293l-1.417 1.416c-2.734-2.398-6.204-3.709-9.876-3.709s-7.142 1.311-9.876 3.709l-1.417-1.416c3.114-2.776 7.087-4.293 11.293-4.293z"/></g></g></svg>