<svg id="Layer_5" enable-background="new 0 0 64 64" height="512" viewBox="0 0 64 64" width="512" xmlns="http://www.w3.org/2000/svg"><g><g><g><path d="m36 14.42v.01c-1.29-.28-2.63-.43-4-.43s-2.71.15-4 .43v-.01-4.42h8z" fill="#ccd1d9"/></g><g><path d="m45 2v2c0 3.31-2.69 6-6 6h-3-8-3c-3.31 0-6-2.69-6-6v-2z" fill="#aab2bd"/></g><g><path d="m51 43c0-10.49-8.51-19-19-19s-19 8.51-19 19v-10c0-9.12 6.43-16.74 15-18.57 1.29-.28 2.63-.43 4-.43s2.71.15 4 .43c8.57 1.83 15 9.45 15 18.57z" fill="#aab2bd"/></g><g><path d="m32 24c10.49 0 19 8.51 19 19s-8.51 19-19 19-19-8.51-19-19 8.51-19 19-19z" fill="#ccd1d9"/></g><g><path d="m32 28c8.28 0 15 6.72 15 15s-6.72 15-15 15-15-6.72-15-15 6.72-15 15-15z" fill="#69d6f4"/></g><g><path d="m32 36c3.87 0 7 3.13 7 7s-3.13 7-7 7-7-3.13-7-7 3.13-7 7-7z" fill="#4fc1e9"/></g><g><circle cx="32" cy="43" fill="#3bafda" r="3"/></g></g><g><path d="m32 39c-2.206 0-4 1.794-4 4s1.794 4 4 4 4-1.794 4-4-1.794-4-4-4zm0 6c-1.103 0-2-.897-2-2s.897-2 2-2 2 .897 2 2-.897 2-2 2z"/><path d="m32 35c-4.411 0-8 3.589-8 8s3.589 8 8 8 8-3.589 8-8-3.589-8-8-8zm0 14c-3.309 0-6-2.691-6-6s2.691-6 6-6 6 2.691 6 6-2.691 6-6 6z"/><path d="m32 27c-8.822 0-16 7.178-16 16s7.178 16 16 16 16-7.178 16-16-7.178-16-16-16zm0 30c-7.72 0-14-6.28-14-14s6.28-14 14-14 14 6.28 14 14-6.28 14-14 14z"/><path d="m37 13.658v-2.658h2c3.859 0 7-3.141 7-7v-3h-28v3c0 3.859 3.141 7 7 7h2v2.658c-8.612 2.229-15 10.043-15 19.342v10c0 11.028 8.972 20 20 20s20-8.972 20-20v-10c0-9.299-6.388-17.113-15-19.342zm-17-9.658v-1h24v1c0 2.757-2.243 5-5 5h-14c-2.757 0-5-2.243-5-5zm9 7h6v2.25c-.981-.149-1.978-.25-3-.25s-2.019.101-3 .25zm3 50c-9.925 0-18-8.075-18-18s8.075-18 18-18 18 8.075 18 18-8.075 18-18 18zm18-26.66c-3.236-6.698-10.077-11.34-18-11.34s-14.764 4.642-18 11.34v-1.34c0-9.925 8.075-18 18-18s18 8.075 18 18z"/><circle cx="32" cy="32" r="1"/><path d="m22.974 36.634c-.478-.276-1.09-.112-1.366.366s-.112 1.09.366 1.366 1.09.112 1.366-.366.112-1.09-.366-1.366z"/><path d="m21.974 47.634c-.478.276-.642.888-.366 1.366s.888.642 1.366.366.642-.888.366-1.366-.888-.642-1.366-.366z"/><circle cx="32" cy="54" r="1"/><path d="m42.026 47.634c-.478-.276-1.09-.112-1.366.366s-.112 1.09.366 1.366 1.09.112 1.366-.366.113-1.09-.366-1.366z"/><path d="m41.026 36.634c-.478.276-.642.888-.366 1.366s.888.642 1.366.366.642-.888.366-1.366-.887-.642-1.366-.366z"/><path d="m56.071 35.929-1.414 1.414c3.119 3.119 3.119 8.195 0 11.314l1.414 1.414c3.9-3.899 3.9-10.243 0-14.142z"/><path d="m58.899 33.101-1.414 1.414c4.679 4.679 4.679 12.292 0 16.971l1.414 1.414c2.645-2.645 4.101-6.161 4.101-9.9s-1.456-7.255-4.101-9.899z"/><path d="m8.025 35.929c-3.899 3.899-3.899 10.243 0 14.143l1.414-1.414c-3.119-3.119-3.119-8.195 0-11.314z"/><path d="m6.61 34.515-1.414-1.414c-5.458 5.459-5.458 14.34 0 19.799l1.414-1.414c-4.677-4.679-4.677-12.293 0-16.971z"/></g></g></svg>