<svg id="Layer_5" enable-background="new 0 0 64 64" height="512" viewBox="0 0 64 64" width="512" xmlns="http://www.w3.org/2000/svg"><g><g><g><path d="m36 3v2c0 .55-.45 1-1 1h-1-24-1c-.55 0-1-.45-1-1v-2c0-.55.45-1 1-1h26c.55 0 1 .45 1 1z" fill="#aab2bd"/></g><g><path d="m34 6v4h-2-20-2v-4z" fill="#ccd1d9"/></g><g><path d="m16 30h12v4h-12z" fill="#cf9e76"/></g><g><path d="m36 10h-28c-1.1 0-2 .9-2 2v16c0 1.1.9 2 2 2h8 12 6 2c1.1 0 2-.9 2-2v-10-6c0-1.1-.9-2-2-2z" fill="#fcd770"/></g><g><path d="m32 10v10c0 2.21-1.79 4-4 4h-12c-2.21 0-4-1.79-4-4v-10z" fill="#e6e9ed"/></g><g><circle cx="19" cy="17" fill="#ff826e" r="3"/></g><g><path d="m58 18h-20v10c0 1.1-.9 2-2 2h-2v6 6 2 12h2v2c0 1.01-.38 1.93-1 2.64.74.84 1.81 1.36 3 1.36h20c2.21 0 4-1.79 4-4v-36c0-2.21-1.79-4-4-4z" fill="#969faa"/></g><g><path d="m58 28v20c0 1.1-.9 2-2 2h-16c-1.1 0-2-.9-2-2v-20c0-1.1.9-2 2-2h16c1.1 0 2 .9 2 2z" fill="#69d6f4"/></g><g><path d="m53 55v2c0 .55-.45 1-1 1h-8c-.55 0-1-.45-1-1v-2c0-.55.45-1 1-1h8c.55 0 1 .45 1 1z" fill="#e6e9ed"/></g><g><circle cx="48" cy="36" fill="#e6e9ed" r="6"/></g><g><path d="m35 60.64c-.73.83-1.8 1.36-3 1.36h-20c-2.21 0-4-1.79-4-4v-2h14 12 2v2c0 1.01-.38 1.93-1 2.64z" fill="#d3a06c"/></g><g><path d="m10 39v2h-4v6c0 .55-.22 1.05-.59 1.41-.36.37-.86.59-1.41.59-1.1 0-2-.9-2-2v-8c0-1.1.9-2 2-2h6z" fill="#aab2bd"/></g><g><path d="m18 42-.13.25c-3.08-1.58-5.76-3.25-7.87-3.25v-2-1c0-1.1.9-2 2-2h4 12 4c1.1 0 2 .9 2 2v6c0-2-4-3-7-3-2.88 0-7.36 1.31-9 3z" fill="#ccd1d9"/></g><g><path d="m27 39c3 0 7 1 7 3s-4 3-7 3c-3.3 0-6.38-1.33-9.13-2.75l.13-.25c1.64-1.69 6.12-3 9-3z" fill="#d3a06c"/></g><g><path d="m34 42v2c0 3.32-1.34 6.32-3.51 8.49s-5.17 3.51-8.49 3.51c-6.63 0-12-5.37-12-12v-3-2c2.11 0 4.79 1.67 7.87 3.25 2.75 1.42 5.83 2.75 9.13 2.75 3 0 7-1 7-3z" fill="#cf9e76"/></g></g><g><path d="m52 53h-8c-1.103 0-2 .897-2 2v2c0 1.103.897 2 2 2h8c1.103 0 2-.897 2-2v-2c0-1.103-.897-2-2-2zm-8 4v-2h8l.001 2z"/><path d="m47 21h6v2h-6z"/><path d="m43 21h2v2h-2z"/><path d="m48 43c3.86 0 7-3.14 7-7s-3.14-7-7-7-7 3.14-7 7 3.14 7 7 7zm0-12c2.757 0 5 2.243 5 5s-2.243 5-5 5-5-2.243-5-5 2.243-5 5-5z"/><path d="m58 17h-19v-5c0-1.654-1.346-3-3-3h-1v-2c1.103 0 2-.897 2-2v-2c0-1.103-.897-2-2-2h-26c-1.103 0-2 .897-2 2v2c0 1.103.897 2 2 2v2h-1c-1.654 0-3 1.346-3 3v16c0 1.654 1.346 3 3 3h7v2h-3c-1.654 0-3 1.346-3 3h-5c-1.654 0-3 1.346-3 3v8c0 1.654 1.346 3 3 3s3-1.346 3-3v-5h2v2c0 4.634 2.444 8.698 6.103 11h-8.103v3c0 2.757 2.243 5 5 5h20c1.123 0 2.149-.385 2.984-1.012.861.651 1.916 1.012 3.016 1.012h20c2.757 0 5-2.243 5-5v-36c0-2.757-2.243-5-5-5zm-19 11c0-.551.449-1 1-1h16c.551 0 1 .449 1 1v20c0 .551-.449 1-1 1h-16c-.551 0-1-.449-1-1zm-26-17h18v9c0 1.654-1.346 3-3 3h-12c-1.654 0-3-1.346-3-3zm-4-8h26l.001 2h-26.001zm2 4h22v2h-22zm-4 21v-16c0-.551.449-1 1-1h3v9c0 2.757 2.243 5 5 5h12c2.757 0 5-2.243 5-5v-9h3c.551 0 1 .449 1 1v16c0 .551-.449 1-1 1h-28c-.551 0-1-.449-1-1zm21.897 27c1.658-1.043 3.061-2.446 4.103-4.103v4.103zm-1.897-11c-2.592 0-5.071-.896-7.379-1.992 1.789-1.09 5.013-2.008 7.379-2.008 3.231 0 6 1.1 6 2s-2.769 2-6 2zm6-10.816c-.314-.112-.648-.184-1-.184h-3v-2h4zm-16-2.184h10v2h-10zm-5 4h20c.551 0 1 .449 1 1v3.272c-1.684-.9-4.11-1.272-6-1.272-2.91 0-7.317 1.215-9.388 2.995-.319-.167-.634-.334-.944-.5-2.102-1.117-3.963-2.097-5.667-2.395v-2.1c-.001-.551.448-1 .999-1zm-7 5v7c0 .551-.449 1-1 1s-1-.449-1-1v-8c0-.551.449-1 1-1h5v2zm6 4v-3.86c1.322.318 2.926 1.163 4.729 2.122 3.298 1.752 7.035 3.738 11.271 3.738 1.876 0 4.28-.367 5.962-1.251-.388 5.716-5.149 10.251-10.962 10.251-6.065 0-11-4.935-11-11zm21 17h-20c-1.654 0-3-1.346-3-3v-1h26v1c0 1.654-1.346 3-3 3zm29-3c0 1.654-1.346 3-3 3h-20c-.608 0-1.188-.194-1.68-.529.421-.732.68-1.568.68-2.471v-3h-2v-11-8-5h1c.352 0 .686-.072 1-.184v17.184c0 1.654 1.346 3 3 3h16c1.654 0 3-1.346 3-3v-20c0-1.654-1.346-3-3-3h-16c-.352 0-.686.072-1 .184v-6.184h19c1.654 0 3 1.346 3 3z"/><path d="m50.707 37.293-1.707-1.707v-2.586h-2v3.414l2.293 2.293z"/><path d="m41 45h2v2h-2z"/><path d="m45 45h10v2h-10z"/><path d="m19 21c2.206 0 4-1.794 4-4s-1.794-4-4-4-4 1.794-4 4 1.794 4 4 4zm0-6c1.103 0 2 .897 2 2s-.897 2-2 2-2-.897-2-2 .897-2 2-2z"/><path d="m25 13h4v2h-4z"/><path d="m25 17h4v2h-4z"/></g></g></svg>