<svg id="Layer_5" enable-background="new 0 0 64 64" height="512" viewBox="0 0 64 64" width="512" xmlns="http://www.w3.org/2000/svg"><g><g><g><path d="m18 22h12v6h-12z" fill="#dfb28b"/></g><g><path d="m30 14v8h-12-2v-4z" fill="#cf9e76"/></g><g><path d="m30 10v4 8 6h26v-18z" fill="#ecc19c"/></g><g><path d="m47 26v2h-8v-2c0-2.21 1.79-4 4-4 1.1 0 2.1.45 2.83 1.17.72.73 1.17 1.73 1.17 2.83z" fill="#e6e9ed"/></g><g><path d="m58 7v3h-2-26-2v-3l4-5h22z" fill="#d3a06c"/></g><g><path d="m34 14h6v4h-6z" fill="#69d6f4"/></g><g><path d="m46 14h6v4h-6z" fill="#69d6f4"/></g><g><path d="m62 32v26c0 2.21-1.79 4-4 4h-52c-2.21 0-4-1.79-4-4v-26c0-2.21 1.79-4 4-4h12 12 9 8 9 2c2.21 0 4 1.79 4 4z" fill="#969faa"/></g><g><path d="m10 41v8c0 .55-.45 1-1 1h-2c-.55 0-1-.45-1-1v-8c0-.55.45-1 1-1h2c.55 0 1 .45 1 1z" fill="#e6e9ed"/></g><g><path d="m54 33v24c0 .55-.45 1-1 1h-38c-.55 0-1-.45-1-1v-24c0-.55.45-1 1-1h38c.55 0 1 .45 1 1z" fill="#69d6f4"/></g><g><path d="m31.71 43h16.29l2 2-2 2h-2l-1-1h-2l-1 1h-10.29c-.86 2.89-3.54 5-6.71 5-3.87 0-7-3.13-7-7s3.13-7 7-7c3.17 0 5.85 2.11 6.71 5zm-5.71 2c0-1.1-.9-2-2-2s-2 .9-2 2 .9 2 2 2 2-.9 2-2z" fill="#fcd770"/></g></g><g><path d="m58 27h-1v-16h2v-4.351l-4.52-5.649h-22.96l-4.52 5.649v4.351h2v2.246l-14 4v5.754h2v4h-11c-2.757 0-5 2.243-5 5v26c0 2.757 2.243 5 5 5h52c2.757 0 5-2.243 5-5v-26c0-2.757-2.243-5-5-5zm-29-19.649 3.48-4.351h21.04l3.48 4.351v1.649h-28zm26 3.649v16h-7v-1c0-2.757-2.243-5-5-5s-5 2.243-5 5v1h-7v-16zm-9 16h-6v-1c0-1.654 1.346-3 3-3s3 1.346 3 3zm-29-8.246 12-3.429v5.675h-12zm2 4.246h10v4h-10zm42 35c0 1.654-1.346 3-3 3h-52c-1.654 0-3-1.346-3-3v-26c0-1.654 1.346-3 3-3h52c1.654 0 3 1.346 3 3z"/><path d="m9 39h-2c-1.103 0-2 .897-2 2v8c0 1.103.897 2 2 2h2c1.103 0 2-.897 2-2v-8c0-1.103-.897-2-2-2zm-2 10v-8h2l.001 8z"/><path d="m53 31h-38c-1.103 0-2 .897-2 2v24c0 1.103.897 2 2 2h38c1.103 0 2-.897 2-2v-24c0-1.103-.897-2-2-2zm-38 26v-24h38l.001 24z"/><path d="m57 40h2v2h-2z"/><path d="m57 44h2v6h-2z"/><path d="m32.414 42c-1.21-2.978-4.157-5-7.414-5-4.411 0-8 3.589-8 8s3.589 8 8 8c3.257 0 6.204-2.022 7.414-5h10l1-1h1.172l1 1h2.828l3-3-3-3zm15.172 4h-1.172l-1-1h-2.828l-1 1h-10.626l-.212.715c-.751 2.523-3.115 4.285-5.748 4.285-3.309 0-6-2.691-6-6s2.691-6 6-6c2.633 0 4.997 1.762 5.748 4.285l.212.715h16.626l1 1z"/><path d="m24 42c-1.654 0-3 1.346-3 3s1.346 3 3 3 3-1.346 3-3-1.346-3-3-3zm0 4c-.552 0-1-.449-1-1s.448-1 1-1 1 .449 1 1-.448 1-1 1z"/><path d="m53 13h-8v6h8zm-2 4h-4v-2h4z"/><path d="m41 19v-6h-8v6zm-6-4h4v2h-4z"/><path d="m41 53h2v2h-2z"/><path d="m49 53h2v2h-2z"/><path d="m45 53h2v2h-2z"/></g></g></svg>