<svg id="Layer_5" enable-background="new 0 0 64 64" height="512" viewBox="0 0 64 64" width="512" xmlns="http://www.w3.org/2000/svg"><g><g><g><path d="m6 10h4v6h-4z" fill="#ccd1d9"/></g><g><path d="m10 4v2h-4v-2c0-1.1.9-2 2-2 .55 0 1.05.22 1.41.59.37.36.59.86.59 1.41z" fill="#ccd1d9"/></g><g><path d="m58 4v2h-4v-2c0-1.1.9-2 2-2 .55 0 1.05.22 1.41.59.37.36.59.86.59 1.41z" fill="#ccd1d9"/></g><g><path d="m54 10h4v6h-4z" fill="#ccd1d9"/></g><g><path d="m61.41 16.59c.37.36.59.86.59 1.41 0 1.1-.9 2-2 2h-22-12-22c-.55 0-1.05-.22-1.41-.59-.37-.36-.59-.86-.59-1.41 0-1.1.9-2 2-2h2 4 13c1.23-2.45 3.73-4 6.47-4h5.06c2.74 0 5.24 1.55 6.47 4h13 4 2c.55 0 1.05.22 1.41.59z" fill="#b4dd7f"/></g><g><path d="m62 36v22c0 2.21-1.79 4-4 4h-52c-2.21 0-4-1.79-4-4v-22c0-2.21 1.79-4 4-4h8 36 8c2.21 0 4 1.79 4 4z" fill="#969faa"/></g><g><path d="m60 6c1.1 0 2 .9 2 2 0 .55-.22 1.05-.59 1.41-.36.37-.86.59-1.41.59h-2-4-2c-1.1 0-2-.9-2-2s.9-2 2-2h2 4z" fill="#b4dd7f"/></g><g><path d="m54 37v20c0 .55-.45 1-1 1h-38c-.55 0-1-.45-1-1v-20c0-.55.45-1 1-1h38c.55 0 1 .45 1 1z" fill="#69d6f4"/></g><g><circle cx="45" cy="47" fill="#ffeaa7" r="5"/></g><g><path d="m38 20v6h-12v-6z" fill="#ccd1d9"/></g><g><circle cx="32" cy="23" fill="#69d6f4" r="2"/></g><g><circle cx="23" cy="47" fill="#ffeaa7" r="5"/></g><g><path d="m12 6c1.1 0 2 .9 2 2 0 .55-.22 1.05-.59 1.41-.36.37-.86.59-1.41.59h-2-4-2c-1.1 0-2-.9-2-2s.9-2 2-2h2 4z" fill="#b4dd7f"/></g><g><path d="m10 43v8c0 .55-.45 1-1 1h-2c-.55 0-1-.45-1-1v-8c0-.55.45-1 1-1h2c.55 0 1 .45 1 1z" fill="#e6e9ed"/></g></g><g><path d="m60 21c1.654 0 3-1.346 3-3s-1.346-3-3-3h-1v-4h1c1.654 0 3-1.346 3-3s-1.346-3-3-3h-1v-1c0-1.654-1.346-3-3-3s-3 1.346-3 3v1h-1c-1.654 0-3 1.346-3 3s1.346 3 3 3h1v4h-11.408c-1.483-2.482-4.136-4-7.063-4h-5.057c-2.928 0-5.58 1.518-7.063 4h-11.409v-4h1c1.654 0 3-1.346 3-3s-1.346-3-3-3h-1v-1c0-1.654-1.346-3-3-3s-3 1.346-3 3v1h-1c-1.654 0-3 1.346-3 3s1.346 3 3 3h1v4h-1c-1.654 0-3 1.346-3 3s1.346 3 3 3h19.586l-10 10h-7.586c-2.757 0-5 2.243-5 5v22c0 2.757 2.243 5 5 5h52c2.757 0 5-2.243 5-5v-22c0-2.757-2.243-5-5-5h-7.586l-10-10zm-33 0h2.78c-.48.532-.78 1.229-.78 2s.301 1.468.78 2h-2.78zm5 3c-.552 0-1-.449-1-1s.448-1 1-1 1 .449 1 1-.448 1-1 1zm2.22-3h2.78v4h-2.78c.48-.532.78-1.229.78-2s-.301-1.468-.78-2zm20.78-17c0-.551.448-1 1-1s1 .449 1 1v1h-2zm-4 4c0-.551.448-1 1-1h8c.552 0 1 .449 1 1s-.448 1-1 1h-8c-.552 0-1-.449-1-1zm4 3h2v4h-2zm-48-7c0-.551.448-1 1-1s1 .449 1 1v1h-2zm-4 4c0-.551.448-1 1-1h8c.552 0 1 .449 1 1s-.448 1-1 1h-8c-.552 0-1-.449-1-1zm4 3h2v4h-2zm-4 7c0-.551.448-1 1-1h19.618l.276-.553c1.063-2.126 3.2-3.447 5.577-3.447h5.057c2.377 0 4.515 1.321 5.577 3.447l.277.553h19.618c.552 0 1 .449 1 1s-.448 1-1 1h-56c-.552 0-1-.449-1-1zm58 18v22c0 1.654-1.346 3-3 3h-52c-1.654 0-3-1.346-3-3v-22c0-1.654 1.346-3 3-3h52c1.654 0 3 1.346 3 3zm-44.586-5 8.586-8.586v4.586h14v-4.586l8.586 8.586z"/><path d="m31 15h2v2h-2z"/><path d="m35 15h2v2h-2z"/><path d="m27 15h2v2h-2z"/><path d="m5 43v8c0 1.103.897 2 2 2h2c1.103 0 2-.897 2-2v-8c0-1.103-.897-2-2-2h-2c-1.103 0-2 .897-2 2zm2 0h2l.002 8h-2.002z"/><path d="m15 59h38c1.103 0 2-.897 2-2v-20c0-1.103-.897-2-2-2h-38c-1.103 0-2 .897-2 2v20c0 1.103.897 2 2 2zm0-22h38l.002 20h-38.002z"/><path d="m57 42h2v2h-2z"/><path d="m57 46h2v6h-2z"/><path d="m45 41c-3.309 0-6 2.691-6 6s2.691 6 6 6 6-2.691 6-6-2.691-6-6-6zm0 10c-2.206 0-4-1.794-4-4s1.794-4 4-4 4 1.794 4 4-1.794 4-4 4z"/><path d="m23 41c-3.309 0-6 2.691-6 6s2.691 6 6 6 6-2.691 6-6-2.691-6-6-6zm0 10c-2.206 0-4-1.794-4-4s1.794-4 4-4 4 1.794 4 4-1.794 4-4 4z"/></g></g></svg>