<svg id="Layer_5" enable-background="new 0 0 64 64" height="512" viewBox="0 0 64 64" width="512" xmlns="http://www.w3.org/2000/svg"><g><g><g><path d="m26 34c-1.74-2.32-3-5.04-3.6-8-.26-1.29-.4-2.63-.4-4s.14-2.71.4-4h-16.4c-2.21 0-4 1.79-4 4v36c0 2.21 1.79 4 4 4h20c1.95 0 3.57-1.39 3.93-3.24.04-.24.07-.5.07-.76v-20c-1.52-1.14-2.86-2.48-4-4z" fill="#969faa"/></g><g><path d="m26 34v15c0 .55-.45 1-1 1h-18c-.55 0-1-.45-1-1v-22c0-.55.45-1 1-1h15.4c.6 2.96 1.86 5.68 3.6 8z" fill="#69d6f4"/></g><g><path d="m21 55v2c0 .55-.45 1-1 1h-8c-.55 0-1-.45-1-1v-2c0-.55.45-1 1-1h8c.55 0 1 .45 1 1z" fill="#e6e9ed"/></g><g><circle cx="16" cy="36" fill="#fcd770" r="6"/></g><g><path d="m46 41.62v12.38h-8v-12.38-.02c1.29.26 2.63.4 4 .4s2.71-.14 4-.4z" fill="#b4dd7f"/></g><g><path d="m54 60v2h-24v-2c0-.42.04-.82.12-1.21.56-2.73 2.98-4.79 5.88-4.79h2 8 2c3.31 0 6 2.69 6 6z" fill="#a0d468"/></g><g><path d="m42 2c11.05 0 20 8.95 20 20 0 9.68-6.87 17.75-16 19.6-1.29.26-2.63.4-4 .4s-2.71-.14-4-.4c-2.96-.6-5.68-1.86-8-3.6-1.52-1.14-2.86-2.48-4-4-1.74-2.32-3-5.04-3.6-8-.26-1.29-.4-2.63-.4-4s.14-2.71.4-4c1.85-9.13 9.92-16 19.6-16z" fill="#e6e9ed"/></g><g><path d="m40.9 24.78-1.73 4.36c-1.85 4.68-8.33 5.33-10.92 1.03-.02-.02-.09-.14-.11-.17-1.88-3.27-2.52-6.9-2.07-10.35l12.97 1.91c-.03.15-.04.29-.04.44 0 1.27.79 2.35 1.9 2.78z" fill="#b4dd7f"/></g><g><path d="m52 9.38-8.14 10.27c-.51-.41-1.16-.65-1.86-.65s-1.35.24-1.86.65l-2.91-3.67c-3.15-3.97-.41-9.95 4.66-9.98h.11c3.77 0 7.24 1.27 10 3.38z" fill="#b4dd7f"/></g><g><path d="m49.59 20.88c5-.74 8.83 4.59 6.34 8.99-.02.04-.05.09-.07.13-1.89 3.27-4.72 5.63-7.93 6.97l-4.83-12.19c1.11-.43 1.9-1.51 1.9-2.78 0-.15-.01-.29-.04-.44z" fill="#b4dd7f"/></g><g><path d="m43.1 24.78c-.34.15-.71.22-1.1.22s-.76-.07-1.1-.22c-1.11-.43-1.9-1.51-1.9-2.78 0-.15.01-.29.04-.44.1-.77.51-1.45 1.1-1.91.51-.41 1.16-.65 1.86-.65s1.35.24 1.86.65c.59.46 1 1.14 1.1 1.91.03.15.04.29.04.44 0 1.27-.79 2.35-1.9 2.78z" fill="#a0d468"/></g></g><g><path d="m20 53h-8c-1.103 0-2 .897-2 2v2c0 1.103.897 2 2 2h8c1.103 0 2-.897 2-2v-2c0-1.103-.897-2-2-2zm-8 4v-2h8l.001 2z"/><path d="m11 21h2v2h-2z"/><path d="m16 43c3.859 0 7-3.14 7-7s-3.141-7-7-7-7 3.14-7 7 3.141 7 7 7zm0-12c2.757 0 5 2.243 5 5s-2.243 5-5 5-5-2.243-5-5 2.243-5 5-5z"/><path d="m18.707 37.293-1.707-1.707v-2.586h-2v3.414l2.293 2.293z"/><path d="m9 45h2v2h-2z"/><path d="m13 45h10v2h-10z"/><path d="m63 22c0-11.58-9.421-21-21-21-9.854 0-18.121 6.831-20.373 16h-15.627c-2.757 0-5 2.243-5 5v36c0 2.757 2.243 5 5 5h20c1.13 0 2.162-.391 3-1.026v1.026h26v-3c0-3.86-3.141-7-7-7h-1v-10.627c9.169-2.252 16-10.519 16-20.373zm-21-19c10.477 0 19 8.523 19 19s-8.523 19-19 19-19-8.523-19-19 8.523-19 19-19zm-6 50c-1.958 0-3.728.81-5 2.111v-15.257c1.834 1.134 3.85 1.991 6 2.519v10.627zm-11-18.721v14.721h-18v-22h14.627c.654 2.662 1.811 5.122 3.373 7.279zm1 26.721h-20c-1.654 0-3-1.346-3-3v-36c0-1.654 1.346-3 3-3h15.24c-.095.658-.157 1.324-.189 2h-6.051v2h6.051c.032.676.094 1.342.189 2h-14.24c-1.103 0-2 .897-2 2v22c0 1.103.897 2 2 2h18c1.103 0 2-.897 2-2v-12.331c.626.641 1.297 1.235 2 1.792v19.539c0 1.654-1.346 3-3 3zm27-1v1h-22v-1c0-2.757 2.243-5 5-5h12c2.757 0 5 2.243 5 5zm-8-7h-6v-10.24c.983.142 1.979.24 3 .24s2.017-.098 3-.24z"/><path d="m33.991 34.026c2.758-.231 5.1-1.964 6.112-4.522l1.407-3.553c.163.02.323.049.49.049s.327-.029.489-.049l4.884 12.333.939-.391c3.566-1.485 6.475-4.042 8.411-7.395l.076-.134c1.318-2.33 1.185-5.165-.348-7.398-1.58-2.302-4.273-3.48-7.006-3.076l-3.761.555c-.13-.306-.308-.584-.506-.846l8.237-10.394-.809-.618c-3.069-2.346-6.737-3.587-10.606-3.587h-.12c-2.691.018-5.093 1.553-6.269 4.005-1.205 2.515-.884 5.428.838 7.601l2.372 2.993c-.198.262-.376.539-.506.846l-13.103-1.934-.131 1.009c-.498 3.833.262 7.629 2.192 10.973l.117.198c1.275 2.109 3.531 3.36 5.99 3.36.203 0 .407-.008.611-.025zm6.009-12.026c0-1.103.897-2 2-2s2 .897 2 2-.897 2-2 2-2-.897-2-2zm9.738-.131c1.973-.292 3.92.562 5.064 2.229 1.113 1.624 1.209 3.598.258 5.281l-.07.121c-1.542 2.671-3.783 4.772-6.52 6.125l-4.12-10.404c.885-.648 1.482-1.648 1.606-2.794zm-12.323-11.999c.855-1.784 2.529-2.856 4.484-2.87h.101c3.085 0 6.024.89 8.563 2.584l-6.946 8.765c-.495-.221-1.04-.349-1.617-.349s-1.122.128-1.618.349l-2.366-2.985c-1.243-1.569-1.473-3.675-.601-5.494zm-8.316 19.78-.089-.15c-1.542-2.671-2.241-5.662-2.044-8.708l11.077 1.635c.124 1.146.721 2.146 1.606 2.794l-1.405 3.547c-.731 1.847-2.425 3.098-4.42 3.265-1.962.169-3.722-.725-4.725-2.383z"/><path d="m41 57h2v2h-2z"/><path d="m45 57h2v2h-2z"/><path d="m37 57h2v2h-2z"/><path d="m34.068 37.04c.61.322 1.246.61 1.89.854l.711-1.869c-.567-.216-1.128-.469-1.667-.754z"/><path d="m38.249 36.528-.498 1.937c1.38.355 2.81.535 4.249.535 1.069 0 2.142-.101 3.187-.298l-.373-1.965c-2.163.41-4.442.337-6.565-.209z"/><path d="m56.992 21.424 1.998-.075c-.025-.692-.095-1.387-.204-2.064l-1.975.319c.097.597.158 1.209.181 1.82z"/><path d="m54.99 14.5c.636 1.101 1.129 2.273 1.467 3.485l1.926-.537c-.383-1.374-.941-2.702-1.66-3.948-.536-.928-1.159-1.806-1.852-2.61l-1.516 1.306c.612.709 1.163 1.484 1.635 2.304z"/><path d="m34.006 9.304-1.064-1.693c-.584.367-1.151.774-1.686 1.209l1.264 1.551c.47-.384.97-.743 1.486-1.067z"/><path d="m29.01 14.5c.635-1.1 1.403-2.113 2.284-3.012l-1.428-1.4c-.999 1.02-1.87 2.167-2.589 3.412-.535.928-.984 1.907-1.335 2.909l1.889.659c.309-.884.705-1.748 1.179-2.568z"/></g></g></svg>