<svg id="Layer_5" enable-background="new 0 0 64 64" height="512" viewBox="0 0 64 64" width="512" xmlns="http://www.w3.org/2000/svg"><g><g><g><path d="m45 58-1 4h-6l-1-4z" fill="#838f9b"/></g><g><path d="m16 58-1 4h-6l-1-4z" fill="#838f9b"/></g><g><path d="m62 36v8c0 1.1-.9 2-2 2h-2v-12h2c1.1 0 2 .9 2 2z" fill="#ccd1d9"/></g><g><path d="m58 46v12l-8-2v-2-28-2l8-2v12z" fill="#aab2bd"/></g><g><path d="m50 24v2h-20c1.1 0 2-.9 2-2v-2h16c1.1 0 2 .9 2 2z" fill="#ccd1d9"/></g><g><path d="m4 26h2v28h8 4 8 4 8 4 8v2c0 1.1-.9 2-2 2h-3-8-21-8-4c-1.1 0-2-.9-2-2v-32c0 1.1.9 2 2 2z" fill="#ccd1d9"/></g><g><path d="m6 26h44v28h-44z" fill="#e6e9ed"/></g><g><path d="m22 40.47v9.53c0 2.21-1.79 4-4 4h-4c-2.21 0-4-1.79-4-4v-9.53c0-1.51.86-2.9 2.21-3.58l1.79-.89v-2h4v2l1.79.89c1.35.68 2.21 2.07 2.21 3.58z" fill="#ff826e"/></g><g><path d="m34 40.47v9.53c0 2.21-1.79 4-4 4h-4c-2.21 0-4-1.79-4-4v-9.53c0-1.51.86-2.9 2.21-3.58l1.79-.89v-2h4v2l1.79.89c1.35.68 2.21 2.07 2.21 3.58z" fill="#ffeaa7"/></g><g><path d="m20 30v4h-2-4-2v-4z" fill="#fc6e51"/></g><g><path d="m32 30v4h-2-4-2v-4z" fill="#fcd770"/></g><g><path d="m44 30v4h-2-4-2v-4z" fill="#fc6e51"/></g><g><path d="m46 40.47v9.53c0 2.21-1.79 4-4 4h-4c-2.21 0-4-1.79-4-4v-9.53c0-1.51.86-2.9 2.21-3.58l1.79-.89v-2h4v2l1.79.89c1.35.68 2.21 2.07 2.21 3.58z" fill="#ff826e"/></g><g><path d="m32 22v2c0 1.1-.9 2-2 2h-1-23-2c-1.1 0-2-.9-2-2v-2-18c0-1.1.9-2 2-2h26c1.1 0 2 .9 2 2z" fill="#f0d0b4"/></g><g><circle cx="17" cy="20" fill="#fcd770" r="2"/></g></g><g><path d="m60 33h-1v-12.281l-8.262 2.065c-.468-1.048-1.517-1.784-2.738-1.784h-15v-17c0-1.654-1.346-3-3-3h-26c-1.654 0-3 1.346-3 3v18 2 32c0 1.654 1.346 3 3 3h3.219l1 4h7.562l1-4h19.438l1 4h7.562l1-4h2.219c1.221 0 2.27-.736 2.737-1.785l8.263 2.066v-12.281h1c1.654 0 3-1.346 3-3v-8c0-1.654-1.346-3-3-3zm-49 17v-9.528c0-1.144.635-2.172 1.658-2.683l2.342-1.171v-1.618h2v1.618l2.342 1.171c1.023.511 1.658 1.539 1.658 2.683v9.528c0 1.654-1.346 3-3 3h-4c-1.654 0-3-1.346-3-3zm2-17v-2h6v2zm9 19.969c.008.011.017.02.026.031h-.051c.008-.011.017-.02.025-.031zm1-2.969v-9.528c0-1.144.635-2.172 1.658-2.683l2.342-1.171v-1.618h2v1.618l2.342 1.171c1.023.511 1.658 1.539 1.658 2.683v9.528c0 1.654-1.346 3-3 3h-4c-1.654 0-3-1.346-3-3zm2-17v-2h6v2zm9 19.969c.008.011.017.02.026.031h-.051c.008-.011.017-.02.025-.031zm1-2.969v-9.528c0-1.144.635-2.172 1.658-2.683l2.342-1.171v-1.618h2v1.618l2.342 1.171c1.023.511 1.658 1.539 1.658 2.683v9.528c0 1.654-1.346 3-3 3h-4c-1.654 0-3-1.346-3-3zm2-17v-2h6v2zm7.236 3-1.236-.618v-.382h2v-6h-10v6h2v.382l-1.236.618c-.714.357-1.307.872-1.764 1.482-.457-.61-1.049-1.125-1.764-1.482l-1.236-.618v-.382h2v-6h-10v6h2v.382l-1.236.618c-.714.357-1.307.872-1.764 1.482-.457-.61-1.049-1.125-1.764-1.482l-1.236-.618v-.382h2v-6h-10v6h2v.382l-1.236.618c-1.705.852-2.764 2.566-2.764 4.472v9.528c0 1.13.391 2.162 1.026 3h-3.026v-26h22 1 19v26h-3.026c.635-.838 1.026-1.87 1.026-3v-9.528c0-1.906-1.059-3.62-2.764-4.472zm3.764-13c.551 0 1 .449 1 1v1h-16.184c.112-.314.184-.648.184-1v-1zm-45-19c0-.551.449-1 1-1h26c.551 0 1 .449 1 1v20c0 .551-.449 1-1 1h-1-25c-.551 0-1-.449-1-1v-2zm11.219 57h-4.438l-.5-2h5.438zm29 0h-4.438l-.5-2h5.438zm4.781-4h-44c-.551 0-1-.449-1-1v-29.184c.314.112.648.184 1 .184h1v28h9 4 8 4 8 4 7v1c0 .551-.449 1-1 1zm9-.281-6-1.5v-30.438l6-1.5zm4-12.719c0 .551-.449 1-1 1h-1v-10h1c.551 0 1 .449 1 1z"/><path d="m17 17c-1.654 0-3 1.346-3 3s1.346 3 3 3 3-1.346 3-3-1.346-3-3-3zm0 4c-.551 0-1-.449-1-1s.449-1 1-1 1 .449 1 1-.449 1-1 1z"/><path d="m12.05 15.05 1.414 1.414c1.949-1.949 5.122-1.949 7.071 0l1.414-1.414c-2.729-2.729-7.169-2.729-9.899 0z"/><path d="m9.222 12.222 1.414 1.414c3.51-3.509 9.219-3.509 12.729 0l1.414-1.414c-4.29-4.289-11.268-4.289-15.557 0z"/><path d="m26.192 10.808 1.414-1.414c-5.849-5.849-15.364-5.849-21.213 0l1.414 1.414c5.069-5.069 13.317-5.069 18.385 0z"/></g></g></svg>