<svg id="Layer_5" enable-background="new 0 0 64 64" height="512" viewBox="0 0 64 64" width="512" xmlns="http://www.w3.org/2000/svg"><g><g><g><path d="m40 2h-12v30 4.68c.91-.44 1.92-.68 3-.68 1.91 0 3.64.76 4.9 2h7.1 1v-32c0-2.21-1.79-4-4-4z" fill="#969faa"/></g><g><path d="m24.42 50.37c-.28-.91-.42-1.85-.42-2.81 0-.85.11-1.67.32-2.46-.21-.66-.32-1.37-.32-2.1v-11-30h-16v30 24h18.15z" fill="#aab2bd"/></g><g><path d="m31.4 62h-29.4v-1l2-5h4 18.15l.85 2.75c.59 1.93 2.38 3.25 4.4 3.25z" fill="#838f9b"/></g><g><path d="m4 6v26 24h4v-24-30c-2.21 0-4 1.79-4 4z" fill="#e6e9ed"/></g><g><path d="m24 2v30 11c0-2.8 1.63-5.2 4-6.32v-4.68-30z" fill="#e6e9ed"/></g><g><path d="m18 7v20c0 .55-.45 1-1 1h-2c-.55 0-1-.45-1-1v-20c0-.55.45-1 1-1h2c.55 0 1 .45 1 1z" fill="#69d6f4"/></g><g><circle cx="16" cy="48" fill="#ff826e" r="4"/></g><g><path d="m61.68 45.1c-.89 2.84-3.54 4.9-6.68 4.9-3.87 0-7-3.13-7-7 0-1.96.8-3.73 2.1-5h-6.1-1-7.1c1.3 1.27 2.1 3.04 2.1 5 0 3.87-3.13 7-7 7-3.14 0-5.79-2.06-6.68-4.9-.21.79-.32 1.61-.32 2.46 0 .96.14 1.9.42 2.81l1.73 5.63.85 2.75c.59 1.93 2.38 3.25 4.4 3.25 1.06 0 2.05-.36 2.84-.98.79-.61 1.38-1.48 1.63-2.51l.29-1.15c-.71-.54-1.16-1.39-1.16-2.36 0-1.66 1.34-3 3-3 1.31 0 2.42.83 2.82 2h2.18 2.18c.4-1.17 1.51-2 2.82-2 1.66 0 3 1.34 3 3 0 .97-.45 1.82-1.16 2.37l.29 1.14c.51 2.05 2.35 3.49 4.47 3.49 1.01 0 1.96-.33 2.74-.9.77-.57 1.36-1.38 1.66-2.35l2.58-8.38c.28-.91.42-1.85.42-2.81 0-.85-.11-1.67-.32-2.46z" fill="#ccd1d9"/></g><g><path d="m48 52c1.66 0 3 1.34 3 3 0 .97-.45 1.82-1.16 2.37-.51.39-1.15.63-1.84.63-1.66 0-3-1.34-3-3 0-.35.06-.69.18-1 .4-1.17 1.51-2 2.82-2z" fill="#fcd770"/></g><g><path d="m40.82 54c.12.31.18.65.18 1 0 1.66-1.34 3-3 3-.69 0-1.33-.24-1.84-.64-.71-.54-1.16-1.39-1.16-2.36 0-1.66 1.34-3 3-3 1.31 0 2.42.83 2.82 2z" fill="#fcd770"/></g><g><path d="m55 36c3.87 0 7 3.13 7 7 0 .73-.11 1.44-.32 2.1-.89 2.84-3.54 4.9-6.68 4.9-3.87 0-7-3.13-7-7 0-1.96.8-3.73 2.1-5 1.26-1.24 2.98-2 4.9-2z" fill="#b4dd7f"/></g><g><path d="m35.9 38c1.3 1.27 2.1 3.04 2.1 5 0 3.87-3.13 7-7 7-3.14 0-5.79-2.06-6.68-4.9-.21-.66-.32-1.37-.32-2.1 0-2.8 1.63-5.2 4-6.32.91-.44 1.92-.68 3-.68 1.91 0 3.64.76 4.9 2z" fill="#b4dd7f"/></g><g><path d="m43 30c1.1 0 2 .9 2 2 0 .74-.4 1.38-1 1.73-.29.17-.64.27-1 .27-1.1 0-2-.9-2-2s.9-2 2-2z" fill="#ff826e"/></g></g><g><path d="m63 43c0-4.411-3.589-8-8-8-2.021 0-3.864.759-5.274 2h-13.452c-1.41-1.241-3.253-2-5.274-2-.692 0-1.359.097-2 .263v-32.263h11c1.654 0 3 1.346 3 3v13.021h2v-13.021c0-2.757-2.243-5-5-5h-32c-2.757 0-5 2.243-5 5v49.807l-2 5.001v2.192h30.403c2.56 0 4.779-1.724 5.422-4.196.374.116.763.196 1.175.196 2.206 0 4-1.794 4-4h2c0 2.206 1.794 4 4 4 .412 0 .801-.08 1.175-.196.643 2.472 2.863 4.196 5.422 4.196 2.477 0 4.63-1.591 5.359-3.958l2.577-8.374c.31-1.008.467-2.053.467-3.105 0-.823-.109-1.638-.297-2.433.188-.68.297-1.392.297-2.13zm-8-6c3.309 0 6 2.691 6 6s-2.691 6-6 6-6-2.691-6-6 2.691-6 6-6zm-18 6c0 3.309-2.691 6-6 6s-6-2.691-6-6 2.691-6 6-6 6 2.691 6 6zm-13.533 7.668 1.333 4.332h-15.8v-22h14v10c0 .738.109 1.45.297 2.13-.188.795-.297 1.609-.297 2.433 0 1.052.157 2.097.467 3.105zm-18.467 4.332v-22h2v22zm4-52h14v28h-14zm16 34.726v-4.726h2v3.082c-.753.438-1.428.994-2 1.644zm2-6.726h-2v-28h2zm-20-27.816v27.816h-2v-25c0-1.302.839-2.402 2-2.816zm-2.323 53.816h20.738l.628 2.042c.228.741.609 1.394 1.082 1.958h-24.048zm33.323 0c-1.103 0-2-.897-2-2s.897-2 2-2 2 .897 2 2-.897 2-2 2zm8-2c0-1.103.897-2 2-2s2 .897 2 2-.897 2-2 2-2-.897-2-2zm14.622-4.92-2.577 8.374c-.469 1.523-1.855 2.546-3.448 2.546-1.658 0-3.098-1.124-3.5-2.732l-.147-.59c.646-.71 1.05-1.644 1.05-2.678 0-2.206-1.794-4-4-4-1.474 0-2.75.81-3.444 2h-3.113c-.694-1.19-1.97-2-3.444-2-2.206 0-4 1.794-4 4 0 1.034.404 1.968 1.05 2.678l-.147.59c-.402 1.608-1.841 2.732-3.499 2.732-1.593 0-2.979-1.023-3.448-2.546l-2.577-8.374c-.175-.568-.267-1.153-.32-1.743 1.465 1.63 3.583 2.663 5.942 2.663 4.411 0 8-3.589 8-8 0-1.458-.398-2.822-1.082-4h10.165c-.685 1.178-1.083 2.542-1.083 4 0 4.411 3.589 8 8 8 2.359 0 4.477-1.033 5.942-2.663-.054.59-.146 1.175-.32 1.743z"/><path d="m54 39h2v2h-2z"/><path d="m51 42h2v2h-2z"/><path d="m54 45h2v2h-2z"/><path d="m57 42h2v2h-2z"/><path d="m30 47h2v-3h3v-2h-3v-3h-2v3h-3v2h3z"/><path d="m42 49h2v2h-2z"/><path d="m42 41h2v2h-2z"/><path d="m42 45h2v2h-2z"/><path d="m40 32c0 1.654 1.346 3 3 3s3-1.346 3-3-1.346-3-3-3-3 1.346-3 3zm4 0c0 .552-.449 1-1 1s-1-.448-1-1 .449-1 1-1 1 .448 1 1z"/><path d="m47.95 27.051c-1.323-1.322-3.08-2.051-4.95-2.051s-3.627.729-4.95 2.051l1.414 1.414c.945-.944 2.201-1.465 3.536-1.465s2.591.521 3.536 1.465z"/><path d="m50.778 24.222c-4.289-4.289-11.268-4.289-15.557 0l1.414 1.414c3.51-3.51 9.219-3.51 12.729 0z"/><path d="m16 43c-2.757 0-5 2.243-5 5s2.243 5 5 5 5-2.243 5-5-2.243-5-5-5zm1 7.816v-3.816h-2v3.816c-1.161-.414-2-1.514-2-2.816 0-1.654 1.346-3 3-3s3 1.346 3 3c0 1.302-.839 2.402-2 2.816z"/><path d="m17 5h-2c-1.103 0-2 .897-2 2v20c0 1.103.897 2 2 2h2c1.103 0 2-.897 2-2v-20c0-1.103-.897-2-2-2zm-2 22v-20h2l.001 20z"/><path d="m15 35h2v2h-2z"/><path d="m19 35h2v2h-2z"/><path d="m11 35h2v2h-2z"/><path d="m15 39h2v2h-2z"/><path d="m19 39h2v2h-2z"/><path d="m11 39h2v2h-2z"/></g></g></svg>