<svg id="Layer_5" enable-background="new 0 0 64 64" height="512" viewBox="0 0 64 64" width="512" xmlns="http://www.w3.org/2000/svg"><g><g><g><path d="m34 32h6 12 6v-4h4v32c0 1.1-.9 2-2 2h-56c-1.1 0-2-.9-2-2v-32h32z" fill="#e6e9ed"/></g><g><path d="m54 54h4v4h-4z" fill="#fcd770"/></g><g><path d="m46 54h4v4h-4z" fill="#fcd770"/></g><g><path d="m38 54h4v4h-4z" fill="#4fc1e9"/></g><g><path d="m30 54h4v4h-4z" fill="#ff826e"/></g><g><path d="m16 58h-8c-1.1 0-2-.9-2-2v-10c0-1.1.9-2 2-2h8c1.1 0 2 .9 2 2v10c0 1.1-.9 2-2 2z" fill="#b4dd7f"/></g><g><circle cx="12" cy="50" fill="#fcd770" r="2"/></g><g><path d="m35.35 45.95c-1.42 1.27-3.29 2.05-5.35 2.05-4.42 0-8-3.58-8-8s3.58-8 8-8 8 3.58 8 8c0 2.36-1.02 4.48-2.65 5.95z" fill="#fc6e51"/></g><g><path d="m34 40c0 1.18-.51 2.25-1.33 2.97-.71.64-1.65 1.03-2.67 1.03-2.21 0-4-1.79-4-4s1.79-4 4-4 4 1.79 4 4z" fill="#ff826e"/></g><g><path d="m62 22v6h-4v-8h2c1.1 0 2 .9 2 2z" fill="#b4dd7f"/></g><g><path d="m2 28v-6c0-1.1.9-2 2-2h30v8z" fill="#b4dd7f"/></g><g><path d="m46 6.46-12 8.57v4.97 8 4h24v-4-8-4.97z" fill="#ffeaa7"/></g><g><path d="m52 26v6h-12v-6c0-3.31 2.69-6 6-6 1.66 0 3.16.67 4.24 1.76 1.09 1.08 1.76 2.58 1.76 4.24z" fill="#cf9e76"/></g><g><circle cx="46" cy="14" fill="#69d6f4" r="2"/></g><g><path d="m61.16 12.37c.9.64 1.11 1.9.47 2.79-.38.53-.99.84-1.63.84-.42 0-.82-.13-1.16-.37l-.84-.6-12-8.57-12 8.57-.84.6c-.34.24-.74.37-1.16.37-.64 0-1.25-.31-1.63-.84-.64-.89-.43-2.15.47-2.79l13.35-9.78c.53-.38 1.16-.59 1.81-.59s1.28.21 1.81.59z" fill="#fcd770"/></g></g><g><path d="m60 19h-1v-2.177c.319.113.654.177 1 .177.967 0 1.88-.47 2.443-1.257.96-1.345.647-3.223-.689-4.178l-13.356-9.781c-1.401-1.025-3.394-1.026-4.795 0l-13.347 9.774c-1.346.962-1.659 2.839-.698 4.185.763 1.069 2.223 1.466 3.441 1.06v2.197h-28.999c-1.654 0-3 1.346-3 3v38c0 1.654 1.346 3 3 3h56c1.654 0 3-1.346 3-3v-38c0-1.654-1.346-3-3-3zm0 2c.551 0 1 .449 1 1v5h-2v-6zm-9 10h-10v-5c0-2.757 2.243-5 5-5s5 2.243 5 5zm-5-12c-3.86 0-7 3.14-7 7v5h-4v-15.456l11-7.857 11 7.857v15.456h-4v-5c0-3.86-3.14-7-7-7zm-14.814-4.419c-.32-.449-.216-1.075.243-1.402l13.356-9.781c.711-.521 1.721-.521 2.432 0l13.364 9.788c.449.321.554.947.234 1.395-.309.433-.961.543-1.396.233l-13.419-9.585-13.419 9.585c-.434.31-1.086.199-1.395-.233zm-27.186 6.419h29v6h-30v-5c0-.551.449-1 1-1zm56 40h-56c-.551 0-1-.449-1-1v-31h30v2.525c-.94-.334-1.947-.525-3-.525-4.962 0-9 4.038-9 9s4.038 9 9 9c1.952 0 3.756-.632 5.232-1.692l3.323 3.692h12.445v-2h-11.555l-2.728-3.031c1.415-1.591 2.283-3.678 2.283-5.969 0-2.826-1.312-5.349-3.356-7h23.356v-4h2v31c0 .551-.449 1-1 1zm-25.992-18.041c.616-.831.992-1.848.992-2.959 0-2.757-2.243-5-5-5s-5 2.243-5 5 2.243 5 5 5c.923 0 1.777-.268 2.519-.706l1.37 1.522c-1.113.747-2.451 1.184-3.889 1.184-3.86 0-7-3.14-7-7s3.14-7 7-7 7 3.14 7 7c0 1.702-.612 3.263-1.625 4.477zm-3.265-3.628-1.486 1.338 1.891 2.101c-.354.147-.741.23-1.148.23-1.654 0-3-1.346-3-3s1.346-3 3-3 3 1.346 3 3c0 .517-.143.997-.375 1.422z"/><path d="m46 11c-1.654 0-3 1.346-3 3s1.346 3 3 3 3-1.346 3-3-1.346-3-3-3zm0 4c-.551 0-1-.449-1-1s.449-1 1-1 1 .449 1 1-.449 1-1 1z"/><path d="m5 23h2v2h-2z"/><path d="m9 23h2v2h-2z"/><path d="m13 23h2v2h-2z"/><path d="m17 43.184v-5.184c0-2.757-2.243-5-5-5s-5 2.243-5 5v5.184c-1.161.414-2 1.514-2 2.816v10c0 1.654 1.346 3 3 3h8c1.654 0 3-1.346 3-3v-10c0-1.302-.839-2.402-2-2.816zm-5-8.184c1.654 0 3 1.346 3 3v5h-6v-5c0-1.654 1.346-3 3-3zm5 21c0 .551-.449 1-1 1h-8c-.551 0-1-.449-1-1v-10c0-.551.449-1 1-1h8c.551 0 1 .449 1 1z"/><path d="m12 47c-1.654 0-3 1.346-3 3 0 1.302.839 2.402 2 2.816v2.184h2v-2.184c1.161-.414 2-1.514 2-2.816 0-1.654-1.346-3-3-3zm0 4c-.551 0-1-.449-1-1s.449-1 1-1 1 .449 1 1-.449 1-1 1z"/><path d="m41 45h10v2h-10z"/><path d="m41 41h10v2h-10z"/><path d="m45 37h2v2h-2z"/><path d="m41 37h2v2h-2z"/><path d="m49 37h2v2h-2z"/><path d="m53 59h6v-6h-6zm2-4h2v2h-2z"/><path d="m45 59h6v-6h-6zm2-4h2v2h-2z"/><path d="m37 59h6v-6h-6zm2-4h2v2h-2z"/><path d="m29 59h6v-6h-6zm2-4h2v2h-2z"/></g></g></svg>