<svg id="Layer_5" enable-background="new 0 0 64 64" height="512" viewBox="0 0 64 64" width="512" xmlns="http://www.w3.org/2000/svg"><g><g><g><path d="m34 50v6h-24c0-3.31 2.69-6 6-6h1z" fill="#ccd1d9"/></g><g><path d="m34 44v6h-17c-1.33-1.91-2.48-3.91-3.44-6z" fill="#fcd770"/></g><g><path d="m10 21.83v-11.83h32v8h-4c-2.21 0-4 1.79-4 4v22h-20.44c-2.34-5.06-3.56-10.58-3.56-16.21z" fill="#ffeaa7"/></g><g><path d="m10 10v11.83c-8-1.35-8-10.83-8-10.83v-1h7z" fill="#fcd770"/></g><g><path d="m22 2 2 4h-12v-4z" fill="#fcd770"/></g><g><path d="m52 10v8h-4v-7c0-.55-.45-1-1-1h-5-32-1c-.55 0-1-.45-1-1v-2c0-.55.45-1 1-1h3 12 24c2.21 0 4 1.79 4 4z" fill="#ccd1d9"/></g><g><path d="m30 16v22h-8v-4-4-4-4-6z" fill="#e6e9ed"/></g><g><path d="m62 22v36c0 2.21-1.79 4-4 4h-20c-2.21 0-4-1.79-4-4v-2-6-6-22c0-2.21 1.79-4 4-4h4 6 4 6c2.21 0 4 1.79 4 4z" fill="#969faa"/></g><g><path d="m53 55v2c0 .55-.45 1-1 1h-8c-.55 0-1-.45-1-1v-2c0-.55.45-1 1-1h8c.55 0 1 .45 1 1z" fill="#e6e9ed"/></g><g><path d="m38 49v-22c0-.55.45-1 1-1h18c.55 0 1 .45 1 1v22c0 .55-.45 1-1 1h-18c-.55 0-1-.45-1-1z" fill="#69d6f4"/></g><g><circle cx="48" cy="36" fill="#e6e9ed" r="6"/></g></g><g><path d="m58 17h-5v-7c0-2.757-2.243-5-5-5h-23.382l-2-4h-11.618v4h-2c-1.103 0-2 .897-2 2v2h-6v2c0 .1.097 9.676 8 11.648v5.145c0 7.583 2.131 14.893 6.172 21.26-3.47.412-6.172 3.368-6.172 6.947v1h24v1c0 2.757 2.243 5 5 5h20c2.757 0 5-2.243 5-5v-36c0-2.757-2.243-5-5-5zm-45-14h8.382l1 2h-9.382zm-4 4h39c1.654 0 3 1.346 3 3v7h-2v-6c0-1.103-.897-2-2-2h-37-1zm38 4v6h-4v-6zm-44 0h6v9.568c-5.9-1.864-5.999-9.237-6-9.568zm14.544 38c-.879-1.291-1.669-2.627-2.375-4h17.831v4zm-6.443 6c.464-2.279 2.485-4 4.899-4h17v4zm21.899-33v21h-18.777c-2.105-4.764-3.223-9.911-3.223-15.207v-16.793h30v6h-3c-2.757 0-5 2.243-5 5zm28 36c0 1.654-1.346 3-3 3h-20c-1.654 0-3-1.346-3-3v-36c0-1.654 1.346-3 3-3h20c1.654 0 3 1.346 3 3z"/><path d="m52 53h-8c-1.103 0-2 .897-2 2v2c0 1.103.897 2 2 2h8c1.103 0 2-.897 2-2v-2c0-1.103-.897-2-2-2zm-8 4v-2h8l.001 2z"/><path d="m47 21h6v2h-6z"/><path d="m43 21h2v2h-2z"/><path d="m57 25h-18c-1.103 0-2 .897-2 2v22c0 1.103.897 2 2 2h18c1.103 0 2-.897 2-2v-22c0-1.103-.897-2-2-2zm-18 24v-22h18l.001 22z"/><path d="m48 29c-3.86 0-7 3.141-7 7s3.14 7 7 7 7-3.141 7-7-3.14-7-7-7zm0 12c-2.757 0-5-2.243-5-5s2.243-5 5-5 5 2.243 5 5-2.243 5-5 5z"/><path d="m49 33h-2v3.414l2.293 2.293 1.414-1.414-1.707-1.707z"/><path d="m41 45h2v2h-2z"/><path d="m45 45h10v2h-10z"/><path d="m21 39h10v-24h-10zm8-22v20h-6v-2h4v-2h-4v-2h2v-2h-2v-2h4v-2h-4v-2h2v-2h-2v-4z"/></g></g></svg>