<svg id="Layer_5" enable-background="new 0 0 64 64" height="512" viewBox="0 0 64 64" width="512" xmlns="http://www.w3.org/2000/svg"><g><g><g><path d="m58 2h-52c-2.21 0-4 1.79-4 4v26c0 2.21 1.79 4 4 4h52c2.21 0 4-1.79 4-4v-26c0-2.21-1.79-4-4-4z" fill="#969faa"/></g><g><path d="m10 15v8c0 .55-.45 1-1 1h-2c-.55 0-1-.45-1-1v-8c0-.55.45-1 1-1h2c.55 0 1 .45 1 1z" fill="#e6e9ed"/></g><g><path d="m53 6h-38c-.55 0-1 .45-1 1v24c0 .55.45 1 1 1h38c.55 0 1-.45 1-1v-24c0-.55-.45-1-1-1z" fill="#69d6f4"/></g><g><circle cx="34" cy="19" fill="#ff826e" r="9"/></g><g><path d="m37.54 15.46c.9.91 1.46 2.16 1.46 3.54s-.56 2.63-1.46 3.54c-.91.9-2.16 1.46-3.54 1.46s-2.63-.56-3.54-1.46c-.9-.91-1.46-2.16-1.46-3.54s.56-2.63 1.46-3.54c.91-.9 2.16-1.46 3.54-1.46s2.63.56 3.54 1.46z" fill="#fc6e51"/></g><g><path d="m40 32v2h-12v-2-6.3c1.59 1.43 3.7 2.3 6 2.3s4.41-.87 6-2.29z" fill="#ccd1d9"/></g><g><path d="m40 34c1.1 0 2 .9 2 2 0 .55-.22 1.05-.59 1.41-.36.37-.86.59-1.41.59h-4-4-4c-1.1 0-2-.9-2-2 0-.55.22-1.05.59-1.41.36-.37.86-.59 1.41-.59z" fill="#ccd1d9"/></g><g><path d="m40 38h-4-4-4l-6 12c0 3.32 1.34 6.32 3.51 8.49s5.17 3.51 8.49 3.51 6.32-1.34 8.49-3.51 3.51-5.17 3.51-8.49z" fill="#ffeaa7"/></g><g><path d="m32 48v2c0 1.1-.9 2-2 2s-2-.9-2-2 .9-2 2-2z" fill="#fcd770"/></g><g><path d="m38 48c1.1 0 2 .9 2 2s-.9 2-2 2-2-.9-2-2v-2z" fill="#fcd770"/></g></g><g><path d="m58 1h-52c-2.757 0-5 2.243-5 5v26c0 2.757 2.243 5 5 5h19.184c.249.698.745 1.27 1.387 1.621l-5.571 11.143v.236c0 7.168 5.832 13 13 13s13-5.832 13-13v-.236l-5.571-11.143c.642-.351 1.138-.924 1.387-1.621h15.184c2.757 0 5-2.243 5-5v-26c0-2.757-2.243-5-5-5zm-30 34h12c.551 0 1 .449 1 1s-.449 1-1 1h-12c-.551 0-1-.449-1-1s.449-1 1-1zm6-20c2.206 0 4 1.794 4 4s-1.794 4-4 4-4-1.794-4-4 1.794-4 4-4zm-3.471 8.885c.722.515 1.562.871 2.471 1.025v2.021c-1.458-.183-2.792-.759-3.898-1.619zm4.471 1.025c.909-.154 1.749-.51 2.471-1.025l1.427 1.427c-1.106.86-2.44 1.436-3.898 1.619zm5.312-1.012-1.427-1.427c.515-.722.871-1.562 1.025-2.471h2.021c-.183 1.458-.759 2.792-1.619 3.898zm-.402-5.898c-.154-.909-.51-1.749-1.025-2.471l1.427-1.427c.86 1.106 1.436 2.44 1.619 3.898zm-2.439-3.885c-.722-.515-1.562-.871-2.471-1.025v-2.021c1.458.183 2.792.759 3.898 1.619zm-4.471-1.025c-.909.154-1.749.51-2.471 1.025l-1.427-1.427c1.106-.86 2.44-1.436 3.898-1.619zm-5.312 1.012 1.427 1.427c-.515.722-.871 1.562-1.025 2.471h-2.021c.183-1.458.759-2.792 1.619-3.898zm.402 5.898c.154.909.51 1.749 1.025 2.471l-1.427 1.427c-.86-1.106-1.436-2.44-1.619-3.898zm.91 7.647c1.473.855 3.178 1.353 5 1.353s3.527-.498 5-1.353v5.353h-10zm12-1.518c1.849-1.816 3-4.339 3-7.129 0-5.514-4.486-10-10-10s-10 4.486-10 10c0 2.79 1.151 5.314 3 7.129v4.871h-12v-24h38v24h-12zm-4 22.871h1c.551 0 1 .449 1 1s-.449 1-1 1-1-.449-1-1zm-4-10h2v8h-2zm1 22c-5.988 0-10.874-4.81-10.998-10.769l5.616-11.231h2.382v8h-1c-1.654 0-3 1.346-3 3s1.346 3 3 3 3-1.346 3-3v-1h2v1c0 1.654 1.346 3 3 3s3-1.346 3-3-1.346-3-3-3h-1v-8h2.382l5.616 11.231c-.124 5.959-5.01 10.769-10.998 10.769zm-3-12v1c0 .551-.449 1-1 1s-1-.449-1-1 .449-1 1-1zm30-17c0 1.654-1.346 3-3 3h-15.184c-.302-.847-.969-1.514-1.816-1.816v-.184h12c1.103 0 2-.897 2-2v-24c0-1.103-.897-2-2-2h-38c-1.103 0-2 .897-2 2v24c0 1.103.897 2 2 2h12v.184c-.847.302-1.514.969-1.816 1.816h-19.184c-1.654 0-3-1.346-3-3v-26c0-1.654 1.346-3 3-3h52c1.654 0 3 1.346 3 3z"/><path d="m9 13h-2c-1.103 0-2 .897-2 2v8c0 1.103.897 2 2 2h2c1.103 0 2-.897 2-2v-8c0-1.103-.897-2-2-2zm0 10-2 .001v-8.001h2z"/><path d="m57 18h2v6h-2z"/><path d="m57 14h2v2h-2z"/><path d="m17 9h2v20h-2z"/><path d="m49 19h2v2h-2z"/><path d="m49 23h2v2h-2z"/><path d="m49 27h2v2h-2z"/><path d="m50.95 45.05-1.414 1.414c1.949 1.95 1.949 5.122 0 7.071l1.414 1.414c2.729-2.728 2.729-7.17 0-9.899z"/><path d="m52.364 43.636c3.509 3.509 3.509 9.219 0 12.729l1.414 1.414c4.289-4.289 4.289-11.268 0-15.557z"/><path d="m17.05 45.05c-2.729 2.729-2.729 7.17 0 9.899l1.414-1.414c-1.949-1.95-1.949-5.122 0-7.071z"/><path d="m15.636 43.636-1.414-1.414c-4.289 4.289-4.289 11.268 0 15.557l1.414-1.414c-3.509-3.51-3.509-9.22 0-12.729z"/></g></g></svg>