<svg id="Layer_5" enable-background="new 0 0 64 64" height="512" viewBox="0 0 64 64" width="512" xmlns="http://www.w3.org/2000/svg"><g><g><g><path d="m40 2h-34c-2.21 0-4 1.79-4 4v52c0 2.21 1.79 4 4 4h34c2.21 0 4-1.79 4-4v-.3-51.7c0-2.21-1.79-4-4-4z" fill="#969faa"/></g><g><path d="m28 55v2c0 .55-.45 1-1 1h-8c-.55 0-1-.45-1-1v-2c0-.55.45-1 1-1h8c.55 0 1 .45 1 1z" fill="#e6e9ed"/></g><g><path d="m28 35h6.31.01c-1.3 2.05-2.12 4.44-2.29 7-.02.33-.03.66-.03 1 0 2.53.63 4.91 1.73 7h-5.73z" fill="#69d6f4"/></g><g><path d="m22 35v15h-15c-.55 0-1-.45-1-1v-14z" fill="#69d6f4"/></g><g><path d="m12 10v19h-6v-18c0-.55.45-1 1-1z" fill="#69d6f4"/></g><g><path d="m18 29v-19h21c.55 0 1 .45 1 1v3.31c-2.44 1.94-4 4.94-4 8.29 0 2.21.69 4.37 1.97 6.16l.17.24z" fill="#69d6f4"/></g><g><path d="m38.14 29 .91 1.28c-1.91 1.19-3.53 2.81-4.73 4.72h-.01-6.31v15h-6v-15h-16v-6h6v-19h6v19z" fill="#b4dd7f"/></g><g><path d="m61.14 38h-5.14c-1.1 0-2 .9-2 2 0 .55.22 1.05.59 1.41.36.37.86.59 1.41.59s1.05.22 1.41.59c.37.36.59.86.59 1.41s-.22 1.05-.59 1.41c-.36.37-.86.59-1.41.59h-2c-1.1 0-2 .9-2 2 0 .55.22 1.05.59 1.41.36.37.86.59 1.41.59h6.26c-2.51 4.76-7.51 8-13.26 8-1.03 0-2.03-.1-3-.3-2.74-.56-5.21-1.86-7.18-3.69l.01-.01h9.17c1.1 0 2-.9 2-2 0-.55-.22-1.05-.59-1.41-.36-.37-.86-.59-1.41-.59h-6c-1.1 0-2-.9-2-2 0-.55.22-1.05.59-1.41.36-.37.86-.59 1.41-.59h2c1.1 0 2-.9 2-2 0-.55-.22-1.05-.59-1.41-.36-.37-.86-.59-1.41-.59h-9.95-.02c.17-2.56.99-4.95 2.29-7 1.2-1.91 2.82-3.53 4.73-4.72l6.37 8.91c.36.51.95.81 1.58.81s1.22-.3 1.58-.81l6.37-8.91c2.85 1.78 5.06 4.5 6.19 7.72z" fill="#3bafda"/></g><g><path d="m44 12.32c.83-.21 1.71-.32 2.6-.32h.8c2.92 0 5.58 1.19 7.49 3.11 1.92 1.91 3.11 4.57 3.11 7.49 0 2.21-.69 4.37-1.97 6.16l-1.08 1.52-6.37 8.91c-.36.51-.95.81-1.58.81s-1.22-.3-1.58-.81l-6.37-8.91-.91-1.28-.17-.24c-1.28-1.79-1.97-3.95-1.97-6.16 0-3.35 1.56-6.35 4-8.29 1.16-.92 2.52-1.61 4-1.99z" fill="#fcd770"/></g><g><circle cx="47" cy="30" fill="#ff826e" r="1.994"/></g><g><path d="m36.83 54-.01.01c-1.25-1.15-2.29-2.5-3.09-4.01-1.1-2.09-1.73-4.47-1.73-7 0-.34.01-.67.03-1h.02 9.95c.55 0 1.05.22 1.41.59.37.36.59.86.59 1.41 0 1.1-.9 2-2 2h-2c-.55 0-1.05.22-1.41.59-.37.36-.59.86-.59 1.41 0 1.1.9 2 2 2h6c.55 0 1.05.22 1.41.59.37.36.59.86.59 1.41 0 1.1-.9 2-2 2z" fill="#8cc152"/></g><g><path d="m61.14 38c.56 1.56.86 3.25.86 5 0 2.53-.63 4.91-1.74 7h-6.26c-.55 0-1.05-.22-1.41-.59-.37-.36-.59-.86-.59-1.41 0-1.1.9-2 2-2h2c.55 0 1.05-.22 1.41-.59.37-.36.59-.86.59-1.41s-.22-1.05-.59-1.41c-.36-.37-.86-.59-1.41-.59s-1.05-.22-1.41-.59c-.37-.36-.59-.86-.59-1.41 0-1.1.9-2 2-2z" fill="#8cc152"/></g></g><g><path d="m18 5h2v2h-2z"/><path d="m22 5h6v2h-6z"/><path d="m27 53h-8c-1.103 0-2 .897-2 2v2c0 1.103.897 2 2 2h8c1.103 0 2-.897 2-2v-2c0-1.103-.897-2-2-2zm-8 4v-2h8l.001 2z"/><path d="m44.879 27.879c-1.17 1.17-1.17 3.072 0 4.242.566.567 1.32.879 2.121.879s1.555-.313 2.121-.879c1.169-1.17 1.169-3.072 0-4.242-1.133-1.133-3.109-1.133-4.242 0zm2.828 2.828c-.377.379-1.036.379-1.414 0-.39-.39-.39-1.024 0-1.414.189-.189.44-.293.707-.293s.518.104.707.293c.39.39.39 1.024 0 1.414z"/><path d="m42.05 25.051 1.414 1.414c.945-.944 2.201-1.465 3.536-1.465s2.591.521 3.536 1.465l1.414-1.414c-1.323-1.322-3.08-2.051-4.95-2.051s-3.627.729-4.95 2.051z"/><path d="m40.636 23.636c3.51-3.51 9.219-3.51 12.729 0l1.414-1.414c-4.289-4.289-11.268-4.289-15.557 0z"/><path d="m56.357 30.02.481-.674c1.414-1.979 2.162-4.311 2.162-6.743 0-6.398-5.205-11.603-11.603-11.603h-.795c-.545 0-1.077.051-1.603.124v-5.124c0-2.757-2.243-5-5-5h-33.999c-2.757 0-5 2.243-5 5v52c0 2.757 2.243 5 5 5h34c2.466 0 4.509-1.799 4.914-4.152.685.09 1.378.152 2.086.152 8.822 0 16-7.178 16-16 0-5.195-2.465-9.972-6.643-12.98zm-8.96-17.02c5.295 0 9.603 4.308 9.603 9.603 0 2.014-.619 3.943-1.789 5.581l-7.444 10.422c-.353.494-1.182.494-1.534 0l-7.444-10.422c-1.17-1.638-1.789-3.568-1.789-5.581 0-5.295 4.308-9.603 9.603-9.603zm-7.397 38h6c.551 0 1 .448 1 1s-.449 1-1 1h-8.779c-2.6-2.543-4.221-6.084-4.221-10h9c.551 0 1 .448 1 1s-.449 1-1 1h-2c-1.654 0-3 1.346-3 3s1.346 3 3 3zm-9-8c0 2.122.424 4.145 1.178 6h-3.178v-13h3.604c-1.04 2.141-1.604 4.522-1.604 7zm2.767-9h-6.767v15h-4v-15h-16v-4h6v-19h4v19h20.628l.014.02c-1.538 1.108-2.838 2.459-3.875 3.98zm-26.767 2h14v13h-14zm0-8v-17h4v17zm32-14.141c-2.445 2.129-4 5.255-4 8.744 0 1.902.463 3.739 1.338 5.397h-17.338v-17h20zm1 47.141h-34c-1.654 0-3-1.346-3-3v-52c0-1.654 1.346-3 3-3h34c1.654 0 3 1.346 3 3v5.58c-.698.229-1.367.519-2 .869v-1.449c0-1.103-.897-2-2-2h-32c-1.103 0-2 .897-2 2v38c0 1.103.897 2 2 2h26.165c2.115 3.643 5.62 6.369 9.788 7.461-.224 1.435-1.457 2.539-2.953 2.539zm7-4c-2.624 0-5.073-.739-7.174-2h6.174c1.654 0 3-1.346 3-3s-1.346-3-3-3h-6c-.551 0-1-.448-1-1s.449-1 1-1h2c1.654 0 3-1.346 3-3s-1.346-3-3-3h-8.854c.533-3.751 2.552-7.112 5.659-9.352l5.799 8.12c.552.771 1.447 1.232 2.396 1.232s1.844-.461 2.395-1.232l5.799-8.12c1.948 1.404 3.47 3.248 4.466 5.352h-3.66c-1.654 0-3 1.346-3 3s1.346 3 3 3c.551 0 1 .448 1 1s-.449 1-1 1h-2c-1.654 0-3 1.346-3 3s1.346 3 3 3h4.473c-2.533 3.622-6.728 6-11.473 6zm12.63-8h-5.63c-.551 0-1-.448-1-1s.449-1 1-1h2c1.654 0 3-1.346 3-3s-1.346-3-3-3c-.551 0-1-.448-1-1s.449-1 1-1h4.417c.378 1.279.583 2.621.583 4 0 2.149-.501 4.178-1.37 6z"/><path d="m21 13h2v2h-2z"/><path d="m25 13h8v2h-8z"/><path d="m21 17h12v2h-12z"/><path d="m21 21h12v2h-12z"/></g></g></svg>