<svg id="Layer_5" enable-background="new 0 0 64 64" height="512" viewBox="0 0 64 64" width="512" xmlns="http://www.w3.org/2000/svg"><g><g><g><path d="m42.68 15.61h-.01c-3.89-3.49-9.03-5.61-14.67-5.61-6.08 0-11.58 2.46-15.56 6.44s-6.44 9.48-6.44 15.56 2.46 11.58 6.44 15.56 9.48 6.44 15.56 6.44c5.64 0 10.78-2.12 14.68-5.61-.44 1.12-.68 2.34-.68 3.61 0 .62.06 1.22.17 1.8-4.08 2.66-8.94 4.2-14.17 4.2-14.36 0-26-11.64-26-26s11.64-26 26-26c5.23 0 10.09 1.54 14.17 4.2-.11.58-.17 1.18-.17 1.8 0 1.27.24 2.49.68 3.61z" fill="#ccd1d9"/></g><g><path d="m43.22 47.22c-.21.38-.39.77-.54 1.17-3.9 3.49-9.04 5.61-14.68 5.61-6.08 0-11.58-2.46-15.56-6.44s-6.44-9.48-6.44-15.56 2.46-11.58 6.44-15.56 9.48-6.44 15.56-6.44c5.64 0 10.78 2.12 14.67 5.61h.01c.15.4.33.79.54 1.17 1.69 3.11 4.99 5.22 8.78 5.22-5.52 0-10 4.48-10 10s4.48 10 10 10c-3.79 0-7.09 2.11-8.78 5.22z" fill="#69d6f4"/></g><g><path d="m33.65 36.03c.23.64.35 1.32.35 2 0 3.3-2.67 5.97-5.97 5.97h-.06c-1.65 0-3.14-.67-4.22-1.75s-1.75-2.57-1.75-4.22c0-.68.12-1.36.35-2l4.31-12.09c.21-.56.74-.94 1.34-.94s1.13.38 1.34.94z" fill="#fcd770"/></g><g><circle cx="28" cy="38" fill="#ffeaa7" r="2"/></g><g><path d="m43.22 47.22c1.69-3.11 4.99-5.22 8.78-5.22 5.52 0 10 4.48 10 10s-4.48 10-10 10c-4.9 0-8.99-3.54-9.83-8.2-.11-.58-.17-1.18-.17-1.8 0-1.27.24-2.49.68-3.61.15-.4.33-.79.54-1.17z" fill="#ffeaa7"/></g><g><path d="m52 22c5.52 0 10 4.48 10 10s-4.48 10-10 10-10-4.48-10-10 4.48-10 10-10z" fill="#ffeaa7"/></g><g><path d="m43.22 16.78c-.21-.38-.39-.77-.54-1.17-.44-1.12-.68-2.34-.68-3.61 0-.62.06-1.22.17-1.8.84-4.66 4.93-8.2 9.83-8.2 5.52 0 10 4.48 10 10s-4.48 10-10 10c-3.79 0-7.09-2.11-8.78-5.22z" fill="#ffeaa7"/></g><g><path d="m51.95 32.01.05-.01c0-4 4-6 4-6s2 3 2 6-3 6-6 6-6-3-6-6 2-6 2-6 3.47 1.73 3.95 6.01z" fill="#ff826e"/></g><g><path d="m55.48 12.09c.34.6.52 1.27.52 1.96 0 2.18-1.77 3.95-3.95 3.95h-.1c-1.09 0-2.08-.44-2.79-1.16-.72-.71-1.16-1.7-1.16-2.79 0-.69.18-1.36.52-1.96l3.48-6.09z" fill="#69d6f4"/></g></g><g><path d="m63 32c0-4.439-2.649-8.264-6.444-10 3.795-1.736 6.444-5.561 6.444-10 0-6.065-4.935-11-11-11-4.895 0-9.05 3.216-10.473 7.645-4.1-2.38-8.744-3.645-13.527-3.645-14.888 0-27 12.112-27 27s12.112 27 27 27c4.783 0 9.426-1.265 13.527-3.645 1.423 4.429 5.578 7.645 10.473 7.645 6.065 0 11-4.935 11-11 0-4.439-2.649-8.264-6.444-10 3.795-1.736 6.444-5.561 6.444-10zm-11-29c4.962 0 9 4.038 9 9s-4.038 9-9 9-9-4.038-9-9 4.038-9 9-9zm-8.953 42.633-2.319-2.319-1.414 1.414 2.696 2.696c-.055.119-.114.234-.165.355-3.58 3.143-8.1 4.95-12.845 5.176v-3.955h-2v3.949c-5.035-.239-9.602-2.25-13.102-5.434l2.788-2.788-1.414-1.414-2.788 2.788c-3.183-3.499-5.195-8.066-5.433-13.101h3.949v-2h-3.949c.239-5.035 2.25-9.602 5.434-13.102l2.788 2.788 1.414-1.414-2.788-2.788c3.5-3.184 8.067-5.195 13.102-5.434v3.95h2v-3.954c4.746.226 9.265 2.032 12.845 5.175.05.121.11.237.165.355l-2.696 2.696 1.414 1.414 2.319-2.319c1.117 1.566 2.631 2.825 4.397 3.633-3.796 1.736-6.445 5.561-6.445 10s2.649 8.264 6.444 10c-1.766.808-3.28 2.067-4.397 3.633zm-15.047 11.367c-13.785 0-25-11.215-25-25s11.215-25 25-25c4.648 0 9.153 1.289 13.083 3.71-.05.424-.083.853-.083 1.29 0 .368.02.731.055 1.09-3.821-2.641-8.355-4.09-13.055-4.09-12.682 0-23 10.318-23 23s10.318 23 23 23c4.699 0 9.233-1.449 13.055-4.09-.035.359-.055.722-.055 1.09 0 .437.033.866.082 1.29-3.929 2.421-8.434 3.71-13.082 3.71zm33-5c0 4.962-4.038 9-9 9s-9-4.038-9-9 4.038-9 9-9 9 4.038 9 9zm-9-11c-4.962 0-9-4.038-9-9s4.038-9 9-9 9 4.038 9 9-4.038 9-9 9z"/><path d="m55 47c.551 0 1 .449 1 1s-.449 1-1 1h-10v2h10c1.654 0 3-1.346 3-3s-1.346-3-3-3-3 1.346-3 3h2c0-.551.449-1 1-1z"/><path d="m55 53h-10v2h10c.551 0 1 .449 1 1s-.449 1-1 1-1-.449-1-1h-2c0 1.654 1.346 3 3 3s3-1.346 3-3-1.346-3-3-3z"/><path d="m52.049 19c2.73 0 4.951-2.221 4.951-4.951 0-.86-.226-1.71-.652-2.457l-4.348-7.608-4.348 7.608c-.426.747-.652 1.597-.652 2.457 0 2.73 2.221 4.951 5.049 4.951zm-2.66-6.415 2.611-4.569 2.611 4.569c.255.445.389.951.389 1.464 0 1.627-1.324 2.951-3.049 2.951-1.627 0-2.951-1.324-2.951-2.951 0-.513.134-1.019.389-1.464z"/><path d="m56.832 25.445-.49-.734-.79.395c-.131.066-2.356 1.204-3.646 3.482-1.307-2.376-3.334-3.419-3.459-3.482l-.79-.395-.49.734c-.087.133-2.167 3.29-2.167 6.555 0 3.533 3.467 7 7 7s7-3.467 7-7c0-3.265-2.08-6.422-2.168-6.555zm-4.832 11.555c-2.43 0-5-2.57-5-5 0-1.75.791-3.552 1.333-4.582 1.018.804 2.667 2.571 2.667 5.582h2c0-.346-.017-.679-.049-1h.049c0-2.298 1.641-3.855 2.658-4.601.543 1.024 1.342 2.831 1.342 4.601 0 2.43-2.57 5-5 5z"/><path d="m28 35c-1.654 0-3 1.346-3 3s1.346 3 3 3 3-1.346 3-3-1.346-3-3-3zm0 4c-.551 0-1-.449-1-1s.449-1 1-1 1 .449 1 1-.449 1-1 1z"/><path d="m30.278 23.605c-.342-.959-1.258-1.605-2.278-1.605s-1.935.645-2.278 1.605l-4.316 12.085c-.269.755-.406 1.543-.406 2.344 0 3.841 3.125 6.966 7.034 6.966 3.841 0 6.966-3.125 6.966-6.966 0-.8-.137-1.589-.406-2.343zm-2.312 19.395c-2.738 0-4.966-2.228-4.966-4.966 0-.571.097-1.133.29-1.67l4.316-12.085c.059-.167.217-.279.394-.279s.335.112.395.278l4.316 12.085c.192.538.29 1.1.29 1.67-.001 2.739-2.229 4.967-5.035 4.967z"/></g></g></svg>