<svg id="Layer_5" enable-background="new 0 0 64 64" height="512" viewBox="0 0 64 64" width="512" xmlns="http://www.w3.org/2000/svg"><g><g><g><path d="m62 32v26c0 2.21-1.79 4-4 4h-52c-2.21 0-4-1.79-4-4v-26c0-2.21 1.79-4 4-4h30 22c2.21 0 4 1.79 4 4z" fill="#ccd1d9"/></g><g><path d="m44 36v18c0 2.21-1.79 4-4 4h-30c-2.21 0-4-1.79-4-4v-18c0-2.21 1.79-4 4-4h6v4h-5c-.55 0-1 .45-1 1v16c0 .55.45 1 1 1h28c.55 0 1-.45 1-1v-16c0-.55-.45-1-1-1h-5v-4h6c2.21 0 4 1.79 4 4z" fill="#fcd770"/></g><g><path d="m34 32v4c0 1.1-.9 2-2 2h-14c-1.1 0-2-.9-2-2v-4z" fill="#e6e9ed"/></g><g><path d="m40 37v16c0 .55-.45 1-1 1h-28c-.55 0-1-.45-1-1v-16c0-.55.45-1 1-1h5c0 1.1.9 2 2 2h14c1.1 0 2-.9 2-2h5c.55 0 1 .45 1 1z" fill="#69d6f4"/></g><g><circle cx="54" cy="54" fill="#fcd770" r="4"/></g><g><path d="m40 6v18c0 2.21-1.79 4-4 4h-30c-2.21 0-4-1.79-4-4v-18c0-2.21 1.79-4 4-4h30c2.21 0 4 1.79 4 4z" fill="#969faa"/></g><g><path d="m32 7v16c0 .55-.45 1-1 1h-20c-.55 0-1-.45-1-1v-16c0-.55.45-1 1-1h20c.55 0 1 .45 1 1z" fill="#69d6f4"/></g><g><circle cx="21" cy="15" fill="#ff826e" r="5"/></g><g><circle cx="46" cy="15" fill="#ff826e" r="2"/></g></g><g><path d="m35 13h2v6h-2z"/><path d="m35 9h2v2h-2z"/><path d="m31 5h-20c-1.103 0-2 .897-2 2v16c0 1.103.897 2 2 2h20c1.103 0 2-.897 2-2v-16c0-1.103-.897-2-2-2zm0 18-20 .001v-16.001h20z"/><path d="m21 21c3.309 0 6-2.691 6-6s-2.691-6-6-6-6 2.691-6 6 2.691 6 6 6zm0-10c2.206 0 4 1.794 4 4s-1.794 4-4 4-4-1.794-4-4 1.794-4 4-4z"/><path d="m58 27h-18.026c.635-.838 1.026-1.87 1.026-3v-18c0-2.757-2.243-5-5-5h-30c-2.757 0-5 2.243-5 5v18c0 1.641.806 3.088 2.031 4-1.225.912-2.031 2.359-2.031 4v26c0 2.757 2.243 5 5 5h52c2.757 0 5-2.243 5-5v-26c0-2.757-2.243-5-5-5zm-55-3v-18c0-1.654 1.346-3 3-3h30c1.654 0 3 1.346 3 3v18c0 1.654-1.346 3-3 3h-30c-1.654 0-3-1.346-3-3zm58 34c0 1.654-1.346 3-3 3h-52c-1.654 0-3-1.346-3-3v-26c0-1.654 1.346-3 3-3h30 22c1.654 0 3 1.346 3 3z"/><path d="m40 31h-30c-2.757 0-5 2.243-5 5v18c0 2.757 2.243 5 5 5h30c2.757 0 5-2.243 5-5v-18c0-2.757-2.243-5-5-5zm-24.816 6c.414 1.161 1.514 2 2.816 2h14c1.302 0 2.402-.839 2.816-2h4.184v16h-28v-16zm17.816-1c0 .552-.448 1-1 1h-14c-.552 0-1-.448-1-1v-3h16zm10 18c0 1.654-1.346 3-3 3h-30c-1.654 0-3-1.346-3-3v-18c0-1.654 1.346-3 3-3h5v2h-4c-1.103 0-2 .897-2 2v16c0 1.103.897 2 2 2h28c1.103 0 2-.897 2-2v-16c0-1.103-.897-2-2-2h-4v-2h5c1.654 0 3 1.346 3 3z"/><path d="m54 49c-2.757 0-5 2.243-5 5s2.243 5 5 5 5-2.243 5-5-2.243-5-5-5zm0 8c-1.654 0-3-1.346-3-3s1.346-3 3-3 3 1.346 3 3-1.346 3-3 3z"/><path d="m5 12h2v6h-2z"/><path d="m46 18c1.654 0 3-1.346 3-3s-1.346-3-3-3-3 1.346-3 3 1.346 3 3 3zm0-4c.552 0 1 .449 1 1s-.448 1-1 1-1-.449-1-1 .448-1 1-1z"/><path d="m50.949 19.95c1.322-1.323 2.051-3.08 2.051-4.95s-.729-3.627-2.051-4.95l-1.414 1.414c.944.945 1.465 2.201 1.465 3.536s-.521 2.591-1.465 3.536z"/><path d="m52.364 21.364 1.414 1.414c4.289-4.289 4.289-11.268 0-15.557l-1.414 1.414c3.509 3.51 3.509 9.22 0 12.729z"/><path d="m57 33h2v2h-2z"/><path d="m53 33h2v2h-2z"/><path d="m49 33h2v2h-2z"/><path d="m57 37h2v2h-2z"/><path d="m53 37h2v2h-2z"/><path d="m49 37h2v2h-2z"/><path d="m57 41h2v2h-2z"/><path d="m53 41h2v2h-2z"/><path d="m49 41h2v2h-2z"/><path d="m57 45h2v2h-2z"/><path d="m53 45h2v2h-2z"/><path d="m49 45h2v2h-2z"/></g></g></svg>