<svg id="Layer_5" enable-background="new 0 0 64 64" height="512" viewBox="0 0 64 64" width="512" xmlns="http://www.w3.org/2000/svg"><g><g><g><path d="m36 50v8c0 2.21-1.79 4-4 4h-26c-2.21 0-4-1.79-4-4v-52c0-2.21 1.79-4 4-4h26c2.21 0 4 1.79 4 4v8z" fill="#969faa"/></g><g><path d="m24 55v2c0 .55-.45 1-1 1h-8c-.55 0-1-.45-1-1v-2c0-.55.45-1 1-1h8c.55 0 1 .45 1 1z" fill="#e6e9ed"/></g><g><path d="m32 11v31h-8v8h-17c-.55 0-1-.45-1-1v-31h8v-8h17c.55 0 1 .45 1 1z" fill="#fcd770"/></g><g><path d="m32 42v7c0 .55-.45 1-1 1h-7v-8z" fill="#b4dd7f"/></g><g><path d="m14 10v8h-8v-7c0-.55.45-1 1-1z" fill="#b4dd7f"/></g><g><path d="m50 30.95v17.05c0 1.1-.9 2-2 2h-12v-36h5.78c-1.13 1.72-1.78 3.78-1.78 6 0 5.74 4.39 10.45 10 10.95z" fill="#b4dd7f"/></g><g><path d="m43 40c-.89 0-1.69.38-2.22 1-.48-.53-.78-1.23-.78-2 0-1.66 1.34-3 3-3s3 1.34 3 3c0 .77-.3 1.47-.78 2-.53-.62-1.33-1-2.22-1z" fill="#e6e9ed"/></g><g><path d="m45.22 41c.49.53.78 1.23.78 2 0 1.66-1.34 3-3 3s-3-1.34-3-3c0-.77.29-1.47.78-2 .53-.62 1.33-1 2.22-1s1.69.38 2.22 1z" fill="#aab2bd"/></g><g><path d="m51 9c6.08 0 11 4.92 11 11s-4.92 11-11 11c-.34 0-.67-.02-1-.05-5.61-.5-10-5.21-10-10.95 0-2.22.65-4.28 1.78-6 1.96-3.01 5.36-5 9.22-5z" fill="#fcd770"/></g></g><g><path d="m31 9h-24c-1.103 0-2 .897-2 2v38c0 1.103.897 2 2 2h24c1.103 0 2-.897 2-2v-38c0-1.103-.897-2-2-2zm-18 2v6h-6v-6zm-6 8h8v-8h16l.001 30h-8.001v8h-16zm18 30v-6h6.001v6z"/><path d="m23 53h-8c-1.103 0-2 .897-2 2v2c0 1.103.897 2 2 2h8c1.103 0 2-.897 2-2v-2c0-1.103-.897-2-2-2zm-8 4v-2h8l.001 2z"/><path d="m18 5h6v2h-6z"/><path d="m14 5h2v2h-2z"/><path d="m9 13h2v2h-2z"/><path d="m27 45h2v2h-2z"/><path d="m17 13h2v6h-2z"/><path d="m27 19h2v-6h-8v2h6z"/><path d="m29 21h-6v-4h-2v6h8z"/><path d="m11 23h8v-2h-10v6h2z"/><path d="m15 25h-2v4h-4v2h6z"/><path d="m17 25h2v6h-2z"/><path d="m27 31h2v-6h-8v2h6z"/><path d="m25 29h-2v6h6v-2h-4z"/><path d="m19 33h2v2h-2z"/><path d="m9 39h2v-4h6v-2h-8z"/><path d="m15 45h-6v2h8v-10h-2z"/><path d="m23 37h2v2h-2z"/><path d="m19 37h2v2h-2z"/><path d="m27 37h2v2h-2z"/><path d="m9 41h4v2h-4z"/><path d="m19 41h2v6h-2z"/><path d="m51 16c1.103 0 2 .897 2 2h2c0-1.859-1.28-3.411-3-3.858v-2.142h-2v2h-3v3c0 2.206 1.794 4 4 4 1.103 0 2 .897 2 2v1h-2c-1.103 0-2-.897-2-2h-2c0 1.859 1.28 3.411 3 3.858v2.142h2v-2h3v-3c0-2.206-1.794-4-4-4-1.103 0-2-.897-2-2v-1z"/><path d="m51 8c-4.003 0-7.546 1.978-9.727 5h-4.273v-7c0-2.757-2.243-5-5-5h-26c-2.757 0-5 2.243-5 5v52c0 2.757 2.243 5 5 5h26c2.757 0 5-2.243 5-5v-7h11c1.654 0 3-1.346 3-3v-16c6.617 0 12-5.383 12-12s-5.383-12-12-12zm-16 50c0 1.654-1.346 3-3 3h-26c-1.654 0-3-1.346-3-3v-52c0-1.654 1.346-3 3-3h26c1.654 0 3 1.346 3 3zm14-10c0 .552-.449 1-1 1h-11v-34h3.105c-.702 1.524-1.105 3.214-1.105 5 0 5.934 4.334 10.863 10 11.819zm2-18c-5.514 0-10-4.486-10-10s4.486-10 10-10 10 4.486 10 10-4.486 10-10 10z"/><path d="m39 39c0 .707.198 1.395.555 2.003-.344.59-.555 1.266-.555 1.997 0 2.206 1.794 4 4 4s4-1.794 4-4c0-.731-.211-1.407-.555-1.997.357-.608.555-1.296.555-2.003 0-2.206-1.794-4-4-4s-4 1.794-4 4zm4 6c-1.103 0-2-.897-2-2s.897-2 2-2 2 .897 2 2-.897 2-2 2zm0-8c1.103 0 2 .897 2 2 0 .175-.032.346-.079.514-.572-.318-1.221-.514-1.921-.514s-1.349.196-1.921.514c-.047-.168-.079-.339-.079-.514 0-1.103.897-2 2-2z"/></g></g></svg>