<svg id="Layer_5" enable-background="new 0 0 64 64" height="512" viewBox="0 0 64 64" width="512" xmlns="http://www.w3.org/2000/svg"><g><g><g><path d="m12 50v4h-6c-2.21 0-4-1.79-4-4v-18c0 2.21 1.79 4 4 4h2v14z" fill="#969faa"/></g><g><path d="m62 32v18c0 2.21-1.79 4-4 4h-6v-4h4v-14h2c2.21 0 4-1.79 4-4z" fill="#969faa"/></g><g><path d="m8 36h4v14h-4z" fill="#aab2bd"/></g><g><path d="m52 36h4v14h-4z" fill="#aab2bd"/></g><g><path d="m12 36v14 4 8h40v-8-4-14z" fill="#f0d0b4"/></g><g><path d="m16 54h4v4h-4z" fill="#4fc1e9"/></g><g><path d="m24 54h4v4h-4z" fill="#4fc1e9"/></g><g><path d="m36 52h12v6h-12z" fill="#e6e9ed"/></g><g><path d="m27 36-9.13 9.13c-1.18-1.75-1.87-3.86-1.87-6.13 0-1.04.14-2.05.41-3z" fill="#fcd770"/></g><g><path d="m37.59 36c.27.95.41 1.96.41 3 0 6.08-4.92 11-11 11v-14z" fill="#fcd770"/></g><g><path d="m27 36v14c-3.81 0-7.16-1.93-9.13-4.87z" fill="#b4dd7f"/></g><g><path d="m2 28c0 2.21 1.79 4 4 4h22 30c2.21 0 4-1.79 4-4v4c0 2.21-1.79 4-4 4h-2-4-14.41-10.59-10.59-4.41-4-2c-2.21 0-4-1.79-4-4z" fill="#ccd1d9"/></g><g><path d="m32 16v12c0 2.21-1.79 4-4 4h-22c-2.21 0-4-1.79-4-4v-8c0-2.21 1.79-4 4-4z" fill="#e6e9ed"/></g><g><path d="m42.8 16h8.4 3.8 3c2.21 0 4 1.79 4 4v8c0 2.21-1.79 4-4 4h-30c2.21 0 4-1.79 4-4v-12h7z" fill="#e6e9ed"/></g><g><path d="m16 22h12v6h-12z" fill="#69d6f4"/></g><g><circle cx="9" cy="25" fill="#fcd770" r="3"/></g><g><path d="m59 7.21-2.67 2.79c-5.15-5.4-13.51-5.4-18.66 0l-2.67-2.79c6.63-6.95 17.37-6.95 24 0z" fill="#ff826e"/></g><g><path d="m54 13.05-2.8 2.95c-2.32-2.44-6.08-2.44-8.4 0l-2.8-2.95c3.87-4.07 10.13-4.07 14 0z" fill="#ff826e"/></g><g><circle cx="47" cy="20" fill="#ff826e" r="2"/></g></g><g><path d="m44 20c0 1.654 1.346 3 3 3s3-1.346 3-3-1.346-3-3-3-3 1.346-3 3zm4 0c0 .551-.448 1-1 1s-1-.449-1-1 .448-1 1-1 1 .449 1 1z"/><path d="m38.391 10.69c2.302-2.412 5.359-3.74 8.609-3.74s6.308 1.328 8.609 3.74l.724.758 4.05-4.242-.659-.69c-3.396-3.557-7.914-5.516-12.723-5.516 0 0 0 0-.001 0-4.809 0-9.327 1.959-12.724 5.516l-.659.69 4.05 4.242zm8.61-7.69c3.945 0 7.673 1.494 10.598 4.226l-1.291 1.353c-2.582-2.348-5.85-3.628-9.308-3.628s-6.726 1.281-9.308 3.628l-1.291-1.353c2.925-2.732 6.655-4.226 10.6-4.226z"/><path d="m51.2 17.452 4.179-4.4-.654-.689c-2.061-2.169-4.804-3.363-7.725-3.363s-5.664 1.194-7.725 3.363l-.654.689 4.179 4.4.725-.764c.932-.98 2.166-1.52 3.476-1.52s2.544.54 3.476 1.52zm-8.347-2.848-1.44-1.516c1.577-1.353 3.53-2.088 5.587-2.088s4.01.735 5.588 2.087l-1.44 1.516c-1.191-.931-2.632-1.435-4.147-1.435s-2.957.504-4.148 1.436z"/><path d="m58 15h-3v2h3c1.654 0 3 1.346 3 3v8c0 1.654-1.346 3-3 3h-26.026c.635-.838 1.026-1.87 1.026-3v-11h6v-2h-33c-2.757 0-5 2.243-5 5v30c0 2.757 2.243 5 5 5h5v8h42v-8h5c2.757 0 5-2.243 5-5v-30c0-2.757-2.243-5-5-5zm-55 5c0-1.654 1.346-3 3-3h25v11c0 1.654-1.346 3-3 3h-22c-1.654 0-3-1.346-3-3zm3 33c-1.654 0-3-1.346-3-3v-14.026c.838.635 1.87 1.026 3 1.026h1v14h4v2zm3-16h2v12h-2zm4 24v-24h2.173c-.11.659-.173 1.327-.173 2 0 6.617 5.383 12 12 12s12-5.383 12-12c0-.673-.063-1.341-.173-2h12.173v24zm23.776-24c.133.657.224 1.324.224 2 0 5.177-3.954 9.446-9 9.949v-11.949zm-10.776 11.949c-2.752-.275-5.174-1.672-6.812-3.723l6.812-6.812zm-7.917-5.446c-.687-1.356-1.083-2.882-1.083-4.503 0-.676.091-1.343.224-2h7.362zm34.917-6.503h2v12h-2zm5 16h-5v-2h4v-14h1c1.13 0 2.162-.391 3-1.026v14.026c0 1.654-1.346 3-3 3zm0-18h-52c-1.654 0-3-1.346-3-3v-.026c.838.635 1.87 1.026 3 1.026h52c1.13 0 2.162-.391 3-1.026v.026c0 1.654-1.346 3-3 3z"/><path d="m15 59h6v-6h-6zm2-4h2v2h-2z"/><path d="m23 59h6v-6h-6zm2-4h2v2h-2z"/><path d="m41 39h8v2h-8z"/><path d="m41 43h8v2h-8z"/><path d="m41 47h8v2h-8z"/><path d="m35 59h14v-8h-14zm2-6h10v4h-10z"/><path d="m9 29c2.206 0 4-1.794 4-4s-1.794-4-4-4-4 1.794-4 4 1.794 4 4 4zm0-6c1.103 0 2 .897 2 2s-.897 2-2 2-2-.897-2-2 .897-2 2-2z"/><path d="m29 21h-14v8h14zm-2 6h-10v-4h10z"/></g></g></svg>