<svg id="Layer_5" enable-background="new 0 0 64 64" height="512" viewBox="0 0 64 64" width="512" xmlns="http://www.w3.org/2000/svg"><g><g><g><path d="m46 3v2c0 .55-.45 1-1 1h-1-20-20-1c-.55 0-1-.45-1-1v-2c0-.55.45-1 1-1h42c.55 0 1 .45 1 1z" fill="#ccd1d9"/></g><g><path d="m34 58c0 2.21 1.79 4 4 4h-31l-1-4z" fill="#ccd1d9"/></g><g><path d="m24 6h-20v36 14c0 1.1.9 2 2 2h28v-16-20c0-2.21 1.79-4 4-4h6v-12z" fill="#fcd770"/></g><g><path d="m30 42v3c0 .55-.45 1-1 1h-10c-.55 0-1-.45-1-1v-3h6z" fill="#ffc729"/></g><g><path d="m24 18h4v12h-4z" fill="#ffc729"/></g><g><path d="m20 18h4v12h-4z" fill="#ffc729"/></g><g><path d="m16 14v4c0 1.1-.9 2-2 2h-4c-1.1 0-2-.9-2-2v-4z" fill="#ffeaa7"/></g><g><path d="m8 10h8v4h-8z" fill="#ffeaa7"/></g><g><path d="m62 22v36c0 2.21-1.79 4-4 4h-20c-2.21 0-4-1.79-4-4v-16-20c0-2.21 1.79-4 4-4h6 14c2.21 0 4 1.79 4 4z" fill="#969faa"/></g><g><path d="m58 27v22c0 .55-.45 1-1 1h-18c-.55 0-1-.45-1-1v-22c0-.55.45-1 1-1h18c.55 0 1 .45 1 1z" fill="#69d6f4"/></g><g><path d="m53 55v2c0 .55-.45 1-1 1h-8c-.55 0-1-.45-1-1v-2c0-.55.45-1 1-1h8c.55 0 1 .45 1 1z" fill="#e6e9ed"/></g><g><circle cx="48" cy="36" fill="#e6e9ed" r="6"/></g></g><g><path d="m58 17h-13v-10c1.103 0 2-.897 2-2v-2c0-1.103-.897-2-2-2h-42c-1.103 0-2 .897-2 2v2c0 1.103.897 2 2 2v49c0 1.371.93 2.517 2.188 2.874l1.031 4.126h31.781 20c2.757 0 5-2.243 5-5v-36c0-2.757-2.243-5-5-5zm-15 0h-5c-2.757 0-5 2.243-5 5v19h-8v-10h4v-14h-4v-10h18zm-24 26h10v2h-10zm6-24h2v10h-2zm-2 10h-2v-10h2zm-20-26h42l.001 2h-42.001zm20 4v10h-4v14h4v10h-18v-34zm-18 36h12v2c0 1.103.897 2 2 2h10c1.103 0 2-.897 2-2v-2h2v14h-27c-.551 0-1-.448-1-1zm2.281 16h25.82c.152.743.482 1.416.924 2h-26.244zm53.719-1c0 1.654-1.346 3-3 3h-20c-1.654 0-3-1.346-3-3v-36c0-1.654 1.346-3 3-3h20c1.654 0 3 1.346 3 3z"/><path d="m52 53h-8c-1.103 0-2 .897-2 2v2c0 1.103.897 2 2 2h8c1.103 0 2-.897 2-2v-2c0-1.103-.897-2-2-2zm-8 4v-2h8l.001 2z"/><path d="m47 21h6v2h-6z"/><path d="m43 21h2v2h-2z"/><path d="m57 25h-18c-1.103 0-2 .897-2 2v22c0 1.103.897 2 2 2h18c1.103 0 2-.897 2-2v-22c0-1.103-.897-2-2-2zm-18 24v-22h18l.001 22z"/><path d="m48 29c-3.86 0-7 3.141-7 7s3.14 7 7 7 7-3.141 7-7-3.14-7-7-7zm0 12c-2.757 0-5-2.243-5-5s2.243-5 5-5 5 2.243 5 5-2.243 5-5 5z"/><path d="m49 33h-2v3.414l2.293 2.293 1.414-1.414-1.707-1.707z"/><path d="m41 45h2v2h-2z"/><path d="m45 45h10v2h-10z"/><path d="m10 21h4c1.654 0 3-1.346 3-3v-9h-10v9c0 1.654 1.346 3 3 3zm4-2h-4c-.551 0-1-.448-1-1v-3h6v3c0 .552-.449 1-1 1zm1-8v2h-6v-2z"/><path d="m7 49h2v2h-2z"/><path d="m7 53h2v2h-2z"/><path d="m7 45h2v2h-2z"/><path d="m39 9h2v2h-2z"/><path d="m31 9h2v2h-2z"/><path d="m35 9h2v2h-2z"/></g></g></svg>