<svg id="Layer_5" enable-background="new 0 0 64 64" height="512" viewBox="0 0 64 64" width="512" xmlns="http://www.w3.org/2000/svg"><g><g><g><path d="m32 4v18h-4v-18c0-.55.22-1.05.59-1.41.36-.37.86-.59 1.41-.59 1.1 0 2 .9 2 2z" fill="#ccd1d9"/></g><g><path d="m16 4v18h-4v-18c0-.55.22-1.05.59-1.41.36-.37.86-.59 1.41-.59 1.1 0 2 .9 2 2z" fill="#ccd1d9"/></g><g><path d="m58 18h-20c-2.21 0-4 1.79-4 4l.24 30c-.08 0-.16 0-.24-.01v6.01c0 2.21 1.79 4 4 4h20c2.21 0 4-1.79 4-4v-36c0-2.21-1.79-4-4-4z" fill="#969faa"/></g><g><path d="m53 55v2c0 .55-.45 1-1 1h-8c-.55 0-1-.45-1-1v-2c0-.55.45-1 1-1h8c.55 0 1 .45 1 1z" fill="#e6e9ed"/></g><g><path d="m41.16 34.71.8-6.36c.03-.23.04-.47.04-.7 0-.57-.09-1.13-.24-1.65h15.24c.55 0 1 .45 1 1v22c0 .55-.45 1-1 1h-18.57l-.01-.01c.62-.76 1.04-1.69 1.17-2.72z" fill="#69d6f4"/></g><g><path d="m41.76 26c-.28-.9-.77-1.7-1.42-2.34-1.02-1.03-2.43-1.66-3.99-1.66h-28.7c-3.12 0-5.65 2.53-5.65 5.65 0 .23.01.47.04.7l2.37 18.92c.34 2.7 2.63 4.73 5.35 4.73 1.44 0 2.81-.57 3.82-1.58l.42-.42h16l.42.42c.95.95 2.23 1.52 3.58 1.57.08.01.16.01.24.01 1.36 0 2.61-.51 3.57-1.35.22-.2.43-.42.61-.66.62-.76 1.04-1.69 1.17-2.72l1.57-12.56.8-6.36c.03-.23.04-.47.04-.7 0-.57-.09-1.13-.24-1.65z" fill="#b4dd7f"/></g><g><path d="m36 22v20c0 1.1-.9 2-2 2h-24c-1.1 0-2-.9-2-2v-20h4 4 12 4 2z" fill="#e6e9ed"/></g><g><circle cx="48" cy="42" fill="#ff826e" r="1.994"/></g><g><circle cx="14" cy="38" fill="#ff826e" r="2"/></g><g><circle cx="22" cy="38" fill="#ff826e" r="2"/></g><g><circle cx="30" cy="38" fill="#ff826e" r="2"/></g></g><g><path d="m58 17h-20c-2.414 0-4.434 1.721-4.899 4h-.101v-17c0-1.654-1.346-3-3-3s-3 1.346-3 3v17h-10v-17c0-1.654-1.346-3-3-3s-3 1.346-3 3v17h-3.352c-3.666 0-6.648 2.982-6.648 6.648 0 .275.017.55.051.824l2.366 18.924c.399 3.195 3.128 5.604 6.348 5.604 1.709 0 3.316-.666 4.522-1.874l.127-.126h15.172l.126.126c.911.912 2.05 1.513 3.288 1.754v5.12c0 2.757 2.243 5 5 5h20c2.757 0 5-2.243 5-5v-36c0-2.757-2.243-5-5-5zm-49 6h26v19c0 .552-.449 1-1 1h-24c-.551 0-1-.448-1-1zm20-19c0-.552.449-1 1-1s1 .448 1 1v17h-2zm-16 0c0-.552.449-1 1-1s1 .448 1 1v17h-2zm17.414 45h-16.828l-.713.712c-.83.831-1.934 1.288-3.108 1.288-2.213 0-4.089-1.656-4.363-3.852l-2.366-18.922c-.024-.192-.036-.384-.036-.578 0-2.341 1.746-4.264 4-4.583v18.935c0 1.654 1.346 3 3 3h24c1.654 0 3-1.346 3-3v-18.934c2.254.319 4 2.242 4 4.583 0 .193-.012.386-.036.576l-2.366 18.924c-.274 2.195-2.149 3.851-4.363 3.851-1.175 0-2.279-.457-3.109-1.288zm12.535-20.528c.034-.274.051-.548.051-.824 0-.219-.012-.435-.033-.648h14.033v22h-16.861c.207-.508.374-1.037.444-1.604l1.523-12.186c3.532-3.069 8.899-2.933 12.258.425l1.414-1.414c-3.611-3.611-9.122-4.169-13.336-1.701zm18.051 29.528c0 1.654-1.346 3-3 3h-20c-1.654 0-3-1.346-3-3v-5.071c1.499-.182 2.84-.88 3.843-1.929h18.157c1.103 0 2-.897 2-2v-22c0-1.103-.897-2-2-2h-14.554c-1.026-2.351-3.37-4-6.095-4h-1.167c.414-1.161 1.514-2 2.816-2h20c1.654 0 3 1.346 3 3z"/><path d="m52 53h-8c-1.103 0-2 .897-2 2v2c0 1.103.897 2 2 2h8c1.103 0 2-.897 2-2v-2c0-1.103-.897-2-2-2zm-8 4v-2h8l.001 2z"/><path d="m47 21h6v2h-6z"/><path d="m43 21h2v2h-2z"/><path d="m45.879 39.879c-1.17 1.17-1.17 3.072 0 4.242.566.567 1.32.879 2.121.879s1.555-.313 2.121-.879c1.169-1.17 1.169-3.072 0-4.242-1.133-1.133-3.109-1.133-4.242 0zm2.828 2.828c-.377.379-1.036.379-1.414 0-.39-.39-.39-1.024 0-1.414.189-.189.44-.293.707-.293s.518.104.707.293c.39.39.39 1.024 0 1.414z"/><path d="m43.05 37.051 1.414 1.414c.945-.944 2.201-1.465 3.536-1.465s2.591.521 3.536 1.465l1.414-1.414c-1.323-1.322-3.08-2.051-4.95-2.051s-3.627.729-4.95 2.051z"/><path d="m22 35c-1.654 0-3 1.346-3 3s1.346 3 3 3 3-1.346 3-3-1.346-3-3-3zm0 4c-.551 0-1-.448-1-1s.449-1 1-1 1 .448 1 1-.449 1-1 1z"/><path d="m27 38c0 1.654 1.346 3 3 3s3-1.346 3-3-1.346-3-3-3-3 1.346-3 3zm3-1c.551 0 1 .448 1 1s-.449 1-1 1-1-.448-1-1 .449-1 1-1z"/><path d="m14 41c1.654 0 3-1.346 3-3s-1.346-3-3-3-3 1.346-3 3 1.346 3 3 3zm0-4c.551 0 1 .448 1 1s-.449 1-1 1-1-.448-1-1 .449-1 1-1z"/><path d="m11 25h2v2h-2z"/><path d="m15 25h14v2h-14z"/><path d="m31 25h2v2h-2z"/></g></g></svg>