<svg id="Layer_5" enable-background="new 0 0 64 64" height="512" viewBox="0 0 64 64" width="512" xmlns="http://www.w3.org/2000/svg"><g><g><g><path d="m32 2h-26c-2.21 0-4 1.79-4 4v52c0 2.21 1.79 4 4 4h26c2.21 0 4-1.79 4-4v-52c0-2.21-1.79-4-4-4z" fill="#969faa"/></g><g><path d="m24 55v2c0 .55-.45 1-1 1h-8c-.55 0-1-.45-1-1v-2c0-.55.45-1 1-1h8c.55 0 1 .45 1 1z" fill="#e6e9ed"/></g><g><path d="m6 49v-38c0-.55.45-1 1-1h24c.55 0 1 .45 1 1v17.43l-5-1.43h-.54v-.03c-1.61-2.4-4.35-3.97-7.46-3.97-2.66 0-5.05 1.15-6.7 2.99-1.43 1.59-2.3 3.7-2.3 6.01s.87 4.42 2.3 6.01c1.65 1.84 4.04 2.99 6.7 2.99 3.12 0 5.87-1.59 7.48-4h.52l5-1.43v13.43c0 .55-.45 1-1 1h-24c-.55 0-1-.45-1-1z" fill="#69d6f4"/></g><g><path d="m42 43h8v18h-8z" fill="#fcd770"/></g><g><path d="m42 3h8v18h-8z" fill="#fcd770"/></g><g><path d="m48 21v6h-4v-6h2z" fill="#ccd1d9"/></g><g><path d="m48 37v6h-2-2v-6z" fill="#ccd1d9"/></g><g><path d="m61.12 29.88c.54.54.88 1.29.88 2.12 0 1.66-1.34 3-3 3h-1v-6h1c.83 0 1.58.34 2.12.88z" fill="#b27946"/></g><g><path d="m58 29v6c0 1.1-.9 2-2 2h-8-4-6v-10h6 4 8c1.1 0 2 .9 2 2z" fill="#cf9e76"/></g><g><path d="m36 27h2v10h-2c-1.1 0-2-.9-2-2v-6c0-1.1.9-2 2-2z" fill="#cf9e76"/></g><g><path d="m34 29v6l-2 .57-5 1.43h-.52-.48v-2-6-2h.46.54l5 1.43z" fill="#ffeaa7"/></g><g><path d="m26 29v6l-6-2v-2z" fill="#fcd770"/></g><g><path d="m19 41c-2.66 0-5.05-1.15-6.7-2.99l.01-.01h3.69c1.1 0 2-.9 2-2 0-.55-.22-1.05-.59-1.41-.36-.37-.86-.59-1.41-.59s-1.05-.22-1.41-.59c-.37-.36-.59-.86-.59-1.41s.22-1.05.59-1.41c.36-.37.86-.59 1.41-.59h1c1.1 0 2-.9 2-2 0-.55-.22-1.05-.59-1.41-.36-.37-.86-.59-1.41-.59h-4.69l-.01-.01c1.65-1.84 4.04-2.99 6.7-2.99 3.11 0 5.85 1.57 7.46 3.97v.03h-.46v2l-6 2v2l6 2v2h.48c-1.61 2.41-4.36 4-7.48 4z" fill="#3bafda"/></g><g><path d="m18.41 26.59c.37.36.59.86.59 1.41 0 1.1-.9 2-2 2h-1c-.55 0-1.05.22-1.41.59-.37.36-.59.86-.59 1.41s.22 1.05.59 1.41c.36.37.86.59 1.41.59s1.05.22 1.41.59c.37.36.59.86.59 1.41 0 1.1-.9 2-2 2h-3.69l-.01.01c-1.43-1.59-2.3-3.7-2.3-6.01s.87-4.42 2.3-6.01l.01.01h4.69c.55 0 1.05.22 1.41.59z" fill="#8cc152"/></g></g><g><path d="m23 53h-8c-1.103 0-2 .897-2 2v2c0 1.103.897 2 2 2h8c1.103 0 2-.897 2-2v-2c0-1.103-.897-2-2-2zm-8 4v-2h8l.002 2z"/><path d="m18 5h6v2h-6z"/><path d="m14 5h2v2h-2z"/><path d="m59 28h-.184c-.414-1.161-1.514-2-2.816-2h-7v-4h2v-20h-10v20h2v4h-6v-20c0-2.757-2.243-5-5-5h-26c-2.757 0-5 2.243-5 5v52c0 2.757 2.243 5 5 5h26c2.757 0 5-2.243 5-5v-20h6v4h-2v20h10v-20h-2v-4h7c1.302 0 2.402-.839 2.816-2h.184c2.206 0 4-1.794 4-4s-1.794-4-4-4zm-16-12h2v4h-2zm2-2h-2v-4h2zm2-4h2v4h-2zm0 10v-4h2v4zm2-12h-2v-4h2zm-4-4v4h-2v-4zm0 18h2v4h-2zm-10 13v-6c0-.551.448-1 1-1h1v8h-1c-.552 0-1-.448-1-1zm-3 26h-26c-1.654 0-3-1.346-3-3v-52c0-1.654 1.346-3 3-3h26c1.654 0 3 1.346 3 3v20.184c-.764.272-1.385.839-1.721 1.57l-.279-.08v-16.674c0-1.103-.897-2-2-2h-24c-1.103 0-2 .897-2 2v38c0 1.103.897 2 2 2h24c1.103 0 2-.897 2-2v-12.674l.279-.08c.336.731.957 1.297 1.721 1.57v20.184c0 1.654-1.346 3-3 3zm-5-25.04v-7.92l6 1.714v4.491zm4-8.857-3.726-1.064-.271-.005c-1.885-2.527-4.834-4.034-8.003-4.034-5.514 0-10 4.486-10 10s4.486 10 10 10c3.156 0 6.089-1.494 7.977-4h.162l3.861-1.103v12.103h-24v-38h24zm-6 6.509-4-1.333v-.559l4-1.333zm-6-3.333v3.441l6 2v1.565c-1.51 1.715-3.683 2.715-6 2.715-1.401 0-2.718-.364-3.864-1h.864c1.654 0 3-1.346 3-3s-1.346-3-3-3c-.552 0-1-.449-1-1s.448-1 1-1h1c1.654 0 3-1.346 3-3s-1.346-3-3-3h-1.864c1.147-.636 2.463-1 3.864-1 2.315 0 4.49.999 6 2.711v1.568zm-6.235-3.279h4.235c.552 0 1 .449 1 1s-.448 1-1 1h-1c-1.654 0-3 1.346-3 3s1.346 3 3 3c.552 0 1 .448 1 1s-.448 1-1 1h-3.235c-1.102-1.371-1.765-3.109-1.765-5s.663-3.629 1.765-5zm36.235 21h-2v-4h2zm-2 2h2v4h-2zm-2 4h-2v-4h2zm0-10v4h-2v-4zm-2 12h2v4h-2zm4 4v-4h2v4zm0-18h-2v-4h2zm10-7c0 .552-.448 1-1 1h-17v-8h17c.552 0 1 .449 1 1zm2-1v-4c1.103 0 2 .897 2 2s-.897 2-2 2z"/><path d="m17 13h2v2h-2z"/><path d="m9 13h2v2h-2z"/><path d="m13 13h2v2h-2z"/><path d="m19 45h2v2h-2z"/><path d="m27 45h2v2h-2z"/><path d="m23 45h2v2h-2z"/><path d="m9 17h10v2h-10z"/></g></g></svg>