<svg id="Layer_5" enable-background="new 0 0 64 64" height="512" viewBox="0 0 64 64" width="512" xmlns="http://www.w3.org/2000/svg"><g><g><g><path d="m10 8v4h-6c-1.1 0-2-.9-2-2 0-.55.22-1.05.59-1.41.36-.37.86-.59 1.41-.59z" fill="#aab2bd"/></g><g><path d="m18 10v12h-2-4-2v-10-4h6c1.1 0 2 .9 2 2z" fill="#a0d468"/></g><g><path d="m29 48h-5.83c-1.29-2.94-3.95-5.14-7.17-5.8v-7.2l8.5 8.5z" fill="#ccd1d9"/></g><g><path d="m62 47v1h-.83-4.71-4.46-10l1.6-1.92c.67-.8 1.43-1.5 2.27-2.08 1.63-1.12 3.55-1.81 5.56-1.96.29-.03.58-.04.88-.04 3 0 5.88 1.19 8.01 3.32z" fill="#ccd1d9"/></g><g><path d="m16 46.35c2.33.82 4 3.04 4 5.65 0 3.31-2.69 6-6 6s-6-2.69-6-6c0-2.61 1.67-4.83 4-5.65v5.65c0 1.1.9 2 2 2 .55 0 1.05-.22 1.41-.59.37-.36.59-.86.59-1.41z" fill="#ccd1d9"/></g><g><path d="m56.46 48c.96 1.06 1.54 2.46 1.54 4 0 3.31-2.69 6-6 6s-6-2.69-6-6h6c1.1 0 2-.9 2-2 0-.55-.22-1.05-.59-1.41-.36-.37-.86-.59-1.41-.59z" fill="#ccd1d9"/></g><g><path d="m23.17 48c.53 1.22.83 2.58.83 4 0 5.52-4.48 10-10 10s-10-4.48-10-10c0-4.84 3.44-8.87 8-9.8v4.15c-2.33.82-4 3.04-4 5.65 0 3.31 2.69 6 6 6s6-2.69 6-6c0-2.61-1.67-4.83-4-5.65v-4.15c3.22.66 5.88 2.86 7.17 5.8z" fill="#838f9b"/></g><g><path d="m61.17 48c.53 1.22.83 2.58.83 4 0 5.52-4.48 10-10 10s-10-4.48-10-10h4c0 3.31 2.69 6 6 6s6-2.69 6-6c0-1.54-.58-2.94-1.54-4z" fill="#838f9b"/></g><g><path d="m53.41 48.59c.37.36.59.86.59 1.41 0 1.1-.9 2-2 2h-6-4-18c0-1.42-.3-2.78-.83-4h5.83 13 10c.55 0 1.05.22 1.41.59z" fill="#b4dd7f"/></g><g><path d="m16 46.35v5.65c0 .55-.22 1.05-.59 1.41-.36.37-.86.59-1.41.59-1.1 0-2-.9-2-2v-5.65-4.15-20.2h4v13 7.2z" fill="#b4dd7f"/></g><g><path d="m52 6v34c0 .75-.22 1.44-.57 2.04-2.01.15-3.93.84-5.56 1.96h-17.87c-1.1 0-2.1-.45-2.83-1.17-.72-.73-1.17-1.73-1.17-2.83v-34c0-2.21 1.79-4 4-4h20c2.21 0 4 1.79 4 4z" fill="#969faa"/></g><g><path d="m47 10h-11v8h-8v17c0 .55.45 1 1 1h3 15c.55 0 1-.45 1-1v-21-3c0-.55-.45-1-1-1z" fill="#fcd770"/></g><g><path d="m36 10v8h-8v-7c0-.55.45-1 1-1z" fill="#b4dd7f"/></g></g><g><path d="m63 46.586-1.975-1.975c-2.194-2.194-5.07-3.444-8.148-3.584.074-.338.123-.682.123-1.027v-34c0-2.757-2.243-5-5-5h-20c-2.757 0-5 2.243-5 5v34c0 .223.037.436.066.652l-6.066-6.066v-11.586h2v-13c0-1.654-1.346-3-3-3h-6-1-5c-1.654 0-3 1.346-3 3s1.346 3 3 3h5v10h2v18.421c-4.681 1.326-8 5.647-8 10.579 0 6.065 4.935 11 11 11 5.728 0 10.442-4.402 10.949-10h16.101c.508 5.598 5.222 10 10.95 10 6.065 0 11-4.935 11-11 0-1.027-.151-2.029-.427-3h.427zm-59-35.586c-.552 0-1-.448-1-1s.448-1 1-1h5v2zm56.586 36h-8.586-7.865l.236-.283c1.968-2.363 4.86-3.717 7.936-3.717 2.76 0 5.354 1.074 7.305 3.025zm-3.586 5c0 2.757-2.243 5-5 5-2.414 0-4.434-1.721-4.899-4h4.899c1.654 0 3-1.346 3-3 0-.352-.072-.686-.184-1h1.159c.654.863 1.025 1.898 1.025 3zm-32.425-3h15.291 12.134c.552 0 1 .448 1 1s-.448 1-1 1h-27.047c-.063-.685-.194-1.353-.378-2zm.425-43c0-1.654 1.346-3 3-3h20c1.654 0 3 1.346 3 3v34c0 .381-.102.749-.251 1.107-1.852.234-3.607.887-5.154 1.893h-17.595c-1.654 0-3-1.346-3-3zm3 39h15.24c-.135.147-.278.283-.406.437l-1.303 1.563h-12.117l-2.066-2.066c.216.029.429.066.652.066zm-1.414 2h-2.806c-1.369-2.667-3.794-4.733-6.78-5.579v-4.007zm-12.586 8c1.654 0 3-1.346 3-3v-3.99c1.234.928 2 2.396 2 3.99 0 2.757-2.243 5-5 5s-5-2.243-5-5c0-1.594.766-3.062 2-3.99v3.99c0 1.654 1.346 3 3 3zm-3-46h5c.552 0 1 .448 1 1v11h-6zm4 14v29c0 .552-.448 1-1 1s-1-.448-1-1v-29zm-1 38c-4.963 0-9-4.037-9-9 0-3.841 2.462-7.225 6-8.478v2.18c-2.413 1.151-4 3.588-4 6.298 0 3.859 3.141 7 7 7s7-3.141 7-7c0-2.71-1.587-5.147-4-6.298v-2.18c3.538 1.253 6 4.637 6 8.478 0 4.963-4.037 9-9 9zm47-9c0 4.963-4.037 9-9 9-4.625 0-8.442-3.507-8.941-8h2.021c.488 3.386 3.401 6 6.92 6 3.859 0 7-3.141 7-7 0-1.056-.24-2.074-.681-3h2.159c.34.96.522 1.965.522 3z"/><path d="m37 5h6v2h-6z"/><path d="m33 5h2v2h-2z"/><path d="m29 37h18c1.103 0 2-.897 2-2v-24c0-1.103-.897-2-2-2h-18c-1.103 0-2 .897-2 2v24c0 1.103.897 2 2 2zm18.002-2h-18.002v-16h8v-8h10zm-12.002-24v6h-6v-6z"/><path d="m31 13h2v2h-2z"/><path d="m41 19v-4h4v-2h-6v6z"/><path d="m44 17h-2v4h-5v2h7z"/><path d="m37 25h-4v-4h-2v6h6z"/><path d="m31 29h2v4h-2z"/><path d="m39 31h-4v2h6v-8h-2z"/><path d="m43 25h2v2h-2z"/><path d="m43 29h2v4h-2z"/><path d="m33 39h10v2h-10z"/></g></g></svg>