<svg id="Layer_5" enable-background="new 0 0 64 64" height="512" viewBox="0 0 64 64" width="512" xmlns="http://www.w3.org/2000/svg"><g><g><g><path d="m62 32v26c0 2.21-1.79 4-4 4h-52c-2.21 0-4-1.79-4-4v-26c0-2.21 1.79-4 4-4h52c2.21 0 4 1.79 4 4z" fill="#969faa"/></g><g><path d="m54 33v24c0 .55-.45 1-1 1h-38c-.55 0-1-.45-1-1v-24c0-.55.45-1 1-1h38c.55 0 1 .45 1 1z" fill="#69d6f4"/></g><g><path d="m20 44h16v10h-16z" fill="#ffeaa7"/></g><g><path d="m32 52v2h-8v-2c0-2.21 1.79-4 4-4 1.1 0 2.1.45 2.83 1.17.72.73 1.17 1.73 1.17 2.83z" fill="#cf9e76"/></g><g><path d="m38 41v3h-2-16-2v-3l10-5z" fill="#fcd770"/></g><g><path d="m42 36h8v6h-8z" fill="#e6e9ed"/></g><g><path d="m10 41v8c0 .55-.45 1-1 1h-2c-.55 0-1-.45-1-1v-8c0-.55.45-1 1-1h2c.55 0 1 .45 1 1z" fill="#e6e9ed"/></g><g><path d="m44 7.21-2.67 2.79c-5.15-5.4-13.51-5.4-18.66 0l-2.67-2.79c6.63-6.95 17.37-6.95 24 0z" fill="#ff826e"/></g><g><path d="m39 13.05-2.8 2.95c-2.32-2.44-6.08-2.44-8.4 0l-2.8-2.95c3.87-4.07 10.13-4.07 14 0z" fill="#ff826e"/></g><g><circle cx="32" cy="20" fill="#ff826e" r="2"/></g></g><g><path d="m58 27h-52c-2.757 0-5 2.243-5 5v26c0 2.757 2.243 5 5 5h52c2.757 0 5-2.243 5-5v-26c0-2.757-2.243-5-5-5zm3 31c0 1.654-1.346 3-3 3h-52c-1.654 0-3-1.346-3-3v-26c0-1.654 1.346-3 3-3h52c1.654 0 3 1.346 3 3z"/><path d="m9 39h-2c-1.103 0-2 .897-2 2v8c0 1.103.897 2 2 2h2c1.103 0 2-.897 2-2v-8c0-1.103-.897-2-2-2zm-2 10v-8h2l.001 8z"/><path d="m53 31h-38c-1.103 0-2 .897-2 2v24c0 1.103.897 2 2 2h38c1.103 0 2-.897 2-2v-24c0-1.103-.897-2-2-2zm-38 26v-24h38l.001 24z"/><path d="m57 40h2v2h-2z"/><path d="m57 44h2v6h-2z"/><path d="m17 40.382v4.618h2v10h18v-10h2v-4.618l-11-5.5zm14 12.618h-6v-1c0-1.654 1.346-3 3-3s3 1.346 3 3zm4 0h-2v-1c0-2.757-2.243-5-5-5s-5 2.243-5 5v1h-2v-8h14zm2-10h-18v-1.382l9-4.5 9 4.5z"/><path d="m41 43h10v-8h-10zm2-6h6v4h-6z"/><path d="m41 45h10v2h-10z"/><path d="m41 49h10v2h-10z"/><path d="m49 53h2v2h-2z"/><path d="m41 53h6v2h-6z"/><path d="m29 20c0 1.654 1.346 3 3 3s3-1.346 3-3-1.346-3-3-3-3 1.346-3 3zm4 0c0 .551-.448 1-1 1s-1-.449-1-1 .448-1 1-1 1 .449 1 1z"/><path d="m23.391 10.69c2.302-2.412 5.359-3.74 8.609-3.74s6.308 1.328 8.609 3.74l.724.758 4.05-4.242-.659-.69c-3.396-3.557-7.914-5.516-12.723-5.516 0 0 0 0-.001 0-4.809 0-9.327 1.959-12.724 5.516l-.659.69 4.05 4.242zm8.61-7.69c3.945 0 7.673 1.494 10.598 4.226l-1.291 1.353c-2.582-2.348-5.85-3.628-9.308-3.628s-6.726 1.281-9.308 3.628l-1.291-1.353c2.925-2.732 6.655-4.226 10.6-4.226z"/><path d="m36.2 17.452 4.179-4.4-.654-.689c-2.061-2.169-4.804-3.363-7.725-3.363s-5.664 1.194-7.725 3.363l-.654.689 4.179 4.4.725-.764c.932-.98 2.166-1.52 3.476-1.52s2.544.54 3.476 1.52zm-8.347-2.848-1.44-1.516c1.577-1.353 3.53-2.088 5.587-2.088s4.01.735 5.588 2.087l-1.44 1.516c-1.191-.931-2.632-1.435-4.147-1.435s-2.957.504-4.148 1.436z"/></g></g></svg>