<svg id="Layer_5" enable-background="new 0 0 64 64" height="512" viewBox="0 0 64 64" width="512" xmlns="http://www.w3.org/2000/svg"><g><g><g><path d="m56 32v-4-4h4c1.1 0 2 .9 2 2v12c0 1.1-.9 2-2 2h-4v-4z" fill="#ccd1d9"/></g><g><path d="m48 56v6h-24v-3.63c1.28-1.22 2.31-2.71 3-4.37h21z" fill="#ffc729"/></g><g><path d="m48 8v2h-24v-2-6h4v2c0 1.1.9 2 2 2h12c1.1 0 2-.9 2-2v-2h4z" fill="#ffc729"/></g><g><path d="m44 2v2c0 1.1-.9 2-2 2h-12c-1.1 0-2-.9-2-2v-2z" fill="#e6e9ed"/></g><g><path d="m50 8c1.1 0 2 .9 2 2v4h-32v-4c0-1.1.9-2 2-2h2v2h24v-2z" fill="#fcd770"/></g><g><path d="m52 50v4c0 1.1-.9 2-2 2h-2v-2h-21c.52-1.25.85-2.59.95-4h.01z" fill="#fcd770"/></g><g><path d="m52 50h-24.04c.03-.33.04-.66.04-1 0-1.03-.12-2.04-.35-3h23.35c.55 0 1-.45 1-1v-26c0-.55-.45-1-1-1h-30c-.55 0-1 .45-1 1v18c-1.25-.52-2.59-.85-4-.95v-18.05c0-2.21 1.79-4 4-4h32c2.21 0 4 1.79 4 4v6 4 4 4 4 6c0 2.21-1.79 4-4 4z" fill="#ffeaa7"/></g><g><path d="m27.65 46c-.96-4.08-3.85-7.42-7.65-9v-18c0-.55.45-1 1-1h30c.55 0 1 .45 1 1v26c0 .55-.45 1-1 1z" fill="#69d6f4"/></g><g><path d="m46 37v2c0 .55-.45 1-1 1h-18c-.55 0-1-.45-1-1v-2c0-.55.45-1 1-1h18c.55 0 1 .45 1 1z" fill="#b4dd7f"/></g><g><path d="m30 25v6l-6-3z" fill="#ff826e"/></g><g><path d="m48 28-6 3v-6z" fill="#ff826e"/></g><g><path d="m27.65 46c.23.96.35 1.97.35 3 0 .34-.01.67-.04 1h-.01c-.1 1.41-.43 2.75-.95 4-.69 1.66-1.72 3.15-3 4.37-2.33 2.25-5.5 3.63-9 3.63-7.18 0-13-5.82-13-13s5.82-13 13-13c.34 0 .67.01 1 .05 1.41.1 2.75.43 4 .95 3.8 1.58 6.69 4.92 7.65 9z" fill="#e6e9ed"/></g><g><path d="m22.29 51.29c.46.46.71 1.07.71 1.71s-.25 1.25-.71 1.71l-1.39 1.39c-.58.58-1.36.9-2.17.9-.48 0-.95-.11-1.38-.32l-1.1-.56c-2.02-1-3.83-2.35-5.35-3.97-1.52-1.61-2.76-3.49-3.65-5.57-.17-.38-.25-.79-.25-1.21v-.1c0-.81.32-1.59.9-2.17l1.39-1.39c.46-.46 1.07-.71 1.71-.71s1.25.25 1.71.71l1.76 1.76c.34.34.53.8.53 1.28v.13c0 .69-.39 1.31-1 1.62s-1 .93-1 1.62v.13c0 .48.19.94.53 1.28l.94.94c.34.34.8.53 1.28.53h.13c.69 0 1.31-.39 1.62-1s.93-1 1.62-1h.13c.48 0 .94.19 1.28.53z" fill="#b4dd7f"/></g></g><g><path d="m23 50.586-1.763-1.763c-.53-.531-1.236-.823-1.986-.823h-.133c-1.071 0-2.034.595-2.513 1.553-.137.276-.415.447-.723.447h-.133c-.216 0-.419-.084-.572-.237l-.939-.939c-.154-.154-.238-.357-.238-.573v-.133c0-.309.171-.586.447-.724.958-.478 1.553-1.441 1.553-2.512v-.133c0-.75-.292-1.456-.823-1.986l-1.763-1.763c-1.289-1.289-3.539-1.289-4.828 0l-1.393 1.393c-.769.769-1.193 1.793-1.193 2.976 0 .554.111 1.094.33 1.604 1.866 4.356 5.229 7.924 9.47 10.045l1.104.552c.563.281 1.192.43 1.821.43 1.089 0 2.112-.424 2.882-1.193l1.393-1.393c.645-.645 1-1.502 1-2.414s-.355-1.77-1-2.414zm-1.414 3.414-1.393 1.393c-.618.618-1.614.778-2.396.389l-1.104-.552c-3.817-1.909-6.846-5.121-8.526-9.043-.11-.261-.167-.536-.167-.913 0-.555.216-1.076.607-1.468l1.393-1.392c.268-.267.622-.414 1-.414s.732.147 1 .414l1.763 1.763c.153.153.237.356.237.572v.133c0 .309-.171.586-.447.724-.958.478-1.553 1.441-1.553 2.512v.133c0 .75.292 1.456.823 1.986l.939.939c.531.532 1.237.824 1.987.824h.133c1.071 0 2.034-.595 2.513-1.553.137-.276.415-.447.723-.447h.133c.216 0 .419.084.572.237l1.763 1.763c.267.268.414.622.414 1s-.147.732-.414 1z"/><path d="m37 23h2v10h-2z"/><path d="m33 23h2v10h-2z"/><path d="m41 32.618 9.236-4.618-9.236-4.618zm2-6 2.764 1.382-2.764 1.382z"/><path d="m31 32.618v-9.236l-9.236 4.618zm-2-3.236-2.764-1.382 2.764-1.382z"/><path d="m60 23h-3v-5c0-2.414-1.721-4.434-4-4.899v-3.101c0-1.654-1.346-3-3-3h-1v-6h-26v6h-1c-1.654 0-3 1.346-3 3v3.101c-2.279.465-4 2.484-4 4.899v17c-7.72 0-14 6.28-14 14s6.28 14 14 14c2.974 0 5.73-.939 8-2.527v2.527h26v-6h1c1.654 0 3-1.346 3-3v-3.101c2.279-.465 4-2.484 4-4.899v-5h3c1.654 0 3-1.346 3-3v-12c0-1.654-1.346-3-3-3zm-31-20h14v1c0 .552-.448 1-1 1h-12c-.552 0-1-.448-1-1zm-4 0h2v1c0 1.654 1.346 3 3 3h12c1.654 0 3-1.346 3-3v-1h2v6h-22zm-3 6h1v2h26v-2h1c.552 0 1 .448 1 1v3h-30v-3c0-.552.448-1 1-1zm-19 40c0-6.617 5.383-12 12-12s12 5.383 12 12-5.383 12-12 12-12-5.383-12-12zm23.395-8.104c.192.062.393.104.605.104h18c1.103 0 2-.897 2-2v-2c0-1.103-.897-2-2-2h-18c-1.103 0-2 .897-2 2v2c0 .085.015.166.025.248-1.153-1.185-2.516-2.158-4.025-2.878v-17.37h30v26h-22.59c-.444-1.488-1.133-2.868-2.015-4.104zm.605-1.896v-2h18l.002 2zm20 22h-22v-2.221c1.075-1.099 1.961-2.377 2.63-3.779h19.37zm3-6h-1v-2h-20.59c.193-.648.332-1.317.43-2h22.16v3c0 .552-.448 1-1 1zm5-9c0 1.654-1.346 3-3 3h-23c0-.681-.065-1.345-.16-2h22.16c1.103 0 2-.897 2-2v-26c0-1.103-.897-2-2-2h-30c-1.103 0-2 .897-2 2v16.59c-.648-.193-1.317-.332-2-.43v-17.16c0-1.654 1.346-3 3-3h32c1.654 0 3 1.346 3 3zm6-8c0 .552-.448 1-1 1h-3v-2h2v-2h-2v-2h2v-2h-2v-2h2v-2h-2v-2h3c.552 0 1 .448 1 1z"/><path d="m31 57h2v2h-2z"/><path d="m39 57h2v2h-2z"/><path d="m43 57h2v2h-2z"/><path d="m27 57h2v2h-2z"/><path d="m35 57h2v2h-2z"/></g></g></svg>