<svg id="Layer_5" enable-background="new 0 0 64 64" height="512" viewBox="0 0 64 64" width="512" xmlns="http://www.w3.org/2000/svg"><g><g><g><path d="m35 2 2 4h-32l2-4z" fill="#b27946"/></g><g><path d="m34 58c0 2.21 1.79 4 4 4h-31l-2-4z" fill="#b27946"/></g><g><path d="m40 8v2h-6c-2.21 0-4 1.79-4 4v36c0 2.21 1.79 4 4 4v4h-29-1c-1.1 0-2-.9-2-2v-2h4 2c2.21 0 4-1.79 4-4v-36c0-2.21-1.79-4-4-4h-2-4v-2c0-1.1.9-2 2-2h1 32 1c1.1 0 2 .9 2 2z" fill="#cf9e76"/></g><g><path d="m8 10h-2-4v44h4 2c2.21 0 4-1.79 4-4v-36c0-2.21-1.79-4-4-4z" fill="#dfb28b"/></g><g><path d="m40 10v8h-2c-2.21 0-4 1.79-4 4v32c-2.21 0-4-1.79-4-4v-36c0-2.21 1.79-4 4-4z" fill="#dfb28b"/></g><g><circle cx="21" cy="50" fill="#fcd770" r="2"/></g><g><circle cx="21" cy="42" fill="#fcd770" r="2"/></g><g><path d="m25 28-4 8-4-8z" fill="#e6e9ed"/></g><g><circle cx="21" cy="17" fill="#ff826e" r="5"/></g><g><path d="m62 22v36c0 2.21-1.79 4-4 4h-18.84-1.16c-2.21 0-4-1.79-4-4v-4-32c0-2.21 1.79-4 4-4h2 18c2.21 0 4 1.79 4 4z" fill="#969faa"/></g><g><path d="m53 55v2c0 .55-.45 1-1 1h-8c-.55 0-1-.45-1-1v-2c0-.55.45-1 1-1h8c.55 0 1 .45 1 1z" fill="#e6e9ed"/></g><g><path d="m38 49v-22c0-.55.45-1 1-1h18c.55 0 1 .45 1 1v22c0 .55-.45 1-1 1h-18c-.55 0-1-.45-1-1z" fill="#69d6f4"/></g><g><circle cx="48" cy="36" fill="#e6e9ed" r="6"/></g></g><g><path d="m58 17h-17v-9c0-1.654-1.346-3-3-3h-.382l-2-4h-29.236l-2 4h-.382c-1.654 0-3 1.346-3 3v48c0 1.654 1.346 3 3 3h.382l2 4h31.618 1.155 18.845c2.757 0 5-2.243 5-5v-36c0-2.757-2.243-5-5-5zm-20 0c-2.757 0-5 2.243-5 5v30.816c-1.161-.414-2-1.514-2-2.816v-36c0-1.654 1.346-3 3-3h5v6zm-30.382-14h26.764l1 2h-28.764zm-4.618 8h5c1.654 0 3 1.346 3 3v36c0 1.654-1.346 3-3 3h-5zm0 45v-1h5c2.757 0 5-2.243 5-5v-36c0-2.757-2.243-5-5-5h-5v-1c0-.552.448-1 1-1h34c.552 0 1 .448 1 1v1h-5c-2.757 0-5 2.243-5 5v36c0 2.414 1.721 4.434 4 4.899v2.101h-29c-.552 0-1-.448-1-1zm3.618 3h26.483c.152.743.482 1.416.924 2h-26.407zm54.382-1c0 1.654-1.346 3-3 3h-18.845-1.155c-1.654 0-3-1.346-3-3v-36c0-1.654 1.346-3 3-3h20c1.654 0 3 1.346 3 3z"/><path d="m52 53h-8c-1.103 0-2 .897-2 2v2c0 1.103.897 2 2 2h8c1.103 0 2-.897 2-2v-2c0-1.103-.897-2-2-2zm-8 4v-2h8l.002 2z"/><path d="m47 21h6v2h-6z"/><path d="m43 21h2v2h-2z"/><path d="m57 25h-18c-1.103 0-2 .897-2 2v22c0 1.103.897 2 2 2h18c1.103 0 2-.897 2-2v-22c0-1.103-.897-2-2-2zm-18 24v-22h18l.002 22z"/><path d="m48 29c-3.859 0-7 3.141-7 7s3.141 7 7 7 7-3.141 7-7-3.141-7-7-7zm0 12c-2.757 0-5-2.243-5-5s2.243-5 5-5 5 2.243 5 5-2.243 5-5 5z"/><path d="m49 33h-2v3.414l2.293 2.293 1.414-1.414-1.707-1.707z"/><path d="m41 45h2v2h-2z"/><path d="m45 45h10v2h-10z"/><path d="m21 11c-3.309 0-6 2.691-6 6s2.691 6 6 6 6-2.691 6-6-2.691-6-6-6zm1 9.858v-5.858h-2v5.858c-1.721-.447-3-1.999-3-3.858 0-2.206 1.794-4 4-4s4 1.794 4 4c0 1.859-1.279 3.411-3 3.858z"/><path d="m21 38.236 5.618-11.236h-11.236zm0-4.472-2.382-4.764h4.764z"/><path d="m21 39c-1.654 0-3 1.346-3 3s1.346 3 3 3 3-1.346 3-3-1.346-3-3-3zm0 4c-.552 0-1-.448-1-1s.448-1 1-1 1 .448 1 1-.448 1-1 1z"/><path d="m21 47c-1.654 0-3 1.346-3 3s1.346 3 3 3 3-1.346 3-3-1.346-3-3-3zm0 4c-.552 0-1-.448-1-1s.448-1 1-1 1 .448 1 1-.448 1-1 1z"/><path d="m35 13h2v2h-2z"/><path d="m5 13h2v2h-2z"/><path d="m5 17h2v2h-2z"/><path d="m5 21h2v2h-2z"/><path d="m5 25h2v2h-2z"/><path d="m5 29h2v2h-2z"/><path d="m5 33h2v2h-2z"/><path d="m5 37h2v2h-2z"/><path d="m5 41h2v2h-2z"/><path d="m5 45h2v2h-2z"/><path d="m5 49h2v2h-2z"/></g></g></svg>