<svg id="Layer_5" enable-background="new 0 0 64 64" height="512" viewBox="0 0 64 64" width="512" xmlns="http://www.w3.org/2000/svg"><g><g><g><path d="m37.21 9.48c1.74 1.05 3.13 2.64 3.95 4.52h-8.78-9.54c.82-1.88 2.21-3.47 3.95-4.52 1.51-.94 3.3-1.48 5.21-1.48s3.7.54 5.21 1.48z" fill="#969faa"/></g><g><circle cx="8" cy="4" fill="#ff826e" r="2"/></g><g><circle cx="56" cy="4" fill="#ff826e" r="2"/></g><g><path d="m16 58v2c0 1.1-.9 2-2 2h-2c-1.1 0-2-.9-2-2v-2z" fill="#969faa"/></g><g><path d="m62 18v12c0-2.21-1.79-4-4-4v-7c0-.55-.45-1-1-1h-23.18-23.64-3.18c-.55 0-1 .45-1 1v30c0 .55.45 1 1 1h33v6 2h-24-6-4c-2.21 0-4-1.79-4-4v-36c0-2.21 1.79-4 4-4h5.62 11.22 9.54 8.78 16.84c2.21 0 4 1.79 4 4z" fill="#ccd1d9"/></g><g><path d="m58 19v7h-14c-2.21 0-4 1.79-4 4v20h-33c-.55 0-1-.45-1-1v-30c0-.55.45-1 1-1h3.18 23.64 23.18c.55 0 1 .45 1 1z" fill="#69d6f4"/></g><g><circle cx="22" cy="34" fill="#4fc1e9" r="12"/></g><g><path d="m62 56v2c0 2.21-1.79 4-4 4h-14c-2.21 0-4-1.79-4-4v-2z" fill="#969faa"/></g><g><path d="m62 43v13h-22v-6-20h22z" fill="#b4dd7f"/></g><g><path d="m62 30h-22c0-2.21 1.79-4 4-4h14c2.21 0 4 1.79 4 4z" fill="#969faa"/></g><g><path d="m58 36v6c0 1.1-.9 2-2 2h-10c-1.1 0-2-.9-2-2v-6c0-1.1.9-2 2-2h10c1.1 0 2 .9 2 2z" fill="#ff826e"/></g></g><g><path d="m58 13h-16.211c-.609-1.193-1.42-2.243-2.379-3.119l14.163-4.132c.546.754 1.427 1.251 2.427 1.251 1.654 0 3-1.346 3-3s-1.346-3-3-3c-1.595 0-2.891 1.255-2.983 2.828l-15.659 4.568c-1.606-.898-3.442-1.396-5.358-1.396s-3.752.498-5.358 1.396l-15.659-4.568c-.092-1.573-1.388-2.828-2.983-2.828-1.654 0-3 1.346-3 3s1.346 3 3 3c1 0 1.881-.497 2.427-1.251l14.163 4.132c-.96.876-1.77 1.927-2.379 3.119h-16.211c-2.757 0-5 2.243-5 5v36c0 2.757 2.243 5 5 5h3v1c0 1.654 1.346 3 3 3h2c1.654 0 3-1.346 3-3v-1h22.101c.465 2.279 2.484 4 4.899 4h14c2.757 0 5-2.243 5-5v-15-13-12c0-2.757-2.243-5-5-5zm-2-10c.552 0 1 .448 1 1s-.448 1-1 1-1-.448-1-1 .448-1 1-1zm-48 2c-.552 0-1-.448-1-1s.448-1 1-1 1 .448 1 1-.448 1-1 1zm24 4c3.032 0 5.808 1.536 7.461 4h-14.922c1.653-2.464 4.429-4 7.461-4zm-29 45v-36c0-1.654 1.346-3 3-3h52c1.654 0 3 1.346 3 3v8.026c-.584-.442-1.257-.773-2-.924v-6.102c0-1.103-.897-2-2-2h-50c-1.103 0-2 .897-2 2v30c0 1.103.897 2 2 2h32v6h-33c-1.654 0-3-1.346-3-3zm54-29h-13c-2.757 0-5 2.243-5 5v19h-32v-30h50zm-13 2h14c1.302 0 2.402.839 2.816 2h-19.632c.414-1.161 1.514-2 2.816-2zm-29 33c0 .552-.448 1-1 1h-2c-.552 0-1-.448-1-1v-1h4zm43 1h-14c-1.654 0-3-1.346-3-3v-1h20v1c0 1.654-1.346 3-3 3zm3-6h-20v-24h20v12z"/><path d="m22 47c7.168 0 13-5.832 13-13s-5.832-13-13-13-13 5.832-13 13 5.832 13 13 13zm-2.2-5.926c.718-.046 1.451-.074 2.2-.074s1.482.028 2.2.074c-.666 2.566-1.599 3.926-2.2 3.926s-1.534-1.36-2.2-3.926zm-.837 3.49c-1.728-.498-3.28-1.407-4.548-2.617 1.003-.293 2.143-.523 3.38-.683.305 1.258.692 2.387 1.168 3.3zm6.02-9.564c-.042 1.535-.176 2.901-.371 4.096-.851-.062-1.724-.096-2.612-.096s-1.761.034-2.612.096c-.195-1.195-.329-2.561-.371-4.096zm-5.966-2c.042-1.535.176-2.901.371-4.096.851.062 1.724.096 2.612.096s1.761-.034 2.612-.096c.195 1.195.329 2.561.371 4.096zm7.188 8.265c1.237.16 2.377.39 3.38.683-1.267 1.21-2.819 2.119-4.548 2.617.476-.914.863-2.043 1.168-3.3zm.388-1.963c.218-1.369.35-2.826.39-4.302h5.966c-.178 1.961-.873 3.771-1.946 5.301-1.261-.441-2.763-.778-4.41-.999zm.39-6.302c-.04-1.476-.173-2.933-.39-4.302 1.646-.221 3.149-.558 4.41-.999 1.074 1.529 1.769 3.34 1.946 5.301zm-.778-6.265c-.304-1.257-.692-2.386-1.168-3.299 1.728.498 3.28 1.407 4.548 2.617-1.003.292-2.144.523-3.38.682zm-2.005.191c-.718.046-1.451.074-2.2.074s-1.482-.028-2.2-.074c.666-2.566 1.599-3.926 2.2-3.926s1.534 1.36 2.2 3.926zm-6.405-.191c-1.237-.16-2.377-.39-3.38-.683 1.267-1.21 2.819-2.119 4.548-2.617-.476.914-.863 2.043-1.168 3.3zm-.388 1.963c-.218 1.369-.35 2.826-.39 4.302h-5.966c.178-1.961.873-3.771 1.946-5.301 1.261.441 2.763.778 4.41.999zm-.39 6.302c.04 1.476.173 2.933.39 4.302-1.646.221-3.149.558-4.41.999-1.074-1.529-1.769-3.34-1.946-5.301z"/><path d="m9 53h2v2h-2z"/><path d="m13 53h2v2h-2z"/><path d="m17 53h2v2h-2z"/><path d="m56 33h-10c-1.654 0-3 1.346-3 3v6c0 1.654 1.346 3 3 3h10c1.654 0 3-1.346 3-3v-6c0-1.654-1.346-3-3-3zm1 9c0 .552-.448 1-1 1h-10c-.552 0-1-.448-1-1v-6c0-.552.448-1 1-1h10c.552 0 1 .448 1 1z"/><path d="m43 51h12v2h-12z"/><path d="m57 51h2v2h-2z"/><path d="m43 47h16v2h-16z"/></g></g></svg>