<svg id="Layer_5" enable-background="new 0 0 64 64" height="512" viewBox="0 0 64 64" width="512" xmlns="http://www.w3.org/2000/svg"><g><g><g><path d="m58 26h-52c-2.21 0-4 1.79-4 4v28c0 2.21 1.79 4 4 4h52c2.21 0 4-1.79 4-4v-28c0-2.21-1.79-4-4-4z" fill="#fcd770"/></g><g><path d="m58 31v26c0 .55-.45 1-1 1h-50c-.55 0-1-.45-1-1v-26c0-.55.45-1 1-1h12.05c.29.35.6.69.93 1.02 3.08 3.08 7.32 4.98 12.02 4.98s8.94-1.9 12.02-4.98c.33-.33.64-.67.93-1.02h12.05c.55 0 1 .45 1 1z" fill="#ffeaa7"/></g><g><path d="m24 50h16v4h-16z" fill="#e6e9ed"/></g><g><path d="m46 34h8v8h-8z" fill="#ff826e"/></g><g><path d="m24 42h16v4h-16z" fill="#ff826e"/></g><g><path d="m10 46h8v4h-8z" fill="#a0d468"/></g><g><path d="m10 38h8v4h-8z" fill="#a0d468"/></g><g><path d="m46 46h8v8h-8z" fill="#b4dd7f"/></g><g><path d="m10 50h8v4h-8z" fill="#b4dd7f"/></g><g><path d="m10 42h8v4h-8z" fill="#b4dd7f"/></g><g><path d="m10 34h8v4h-8z" fill="#b4dd7f"/></g><g><circle cx="32" cy="19" fill="#ccd1d9" r="17"/></g><g><path d="m41.19 9.81c2.35 2.35 3.81 5.6 3.81 9.19s-1.46 6.84-3.81 9.19c-.49.49-1.02.94-1.58 1.34-.85-2.59-2.96-4.59-5.61-5.27v-10.26c0-1.1-.9-2-2-2-.55 0-1.05.22-1.41.59-.37.36-.59.86-.59 1.41v10.26c-2.65.68-4.76 2.68-5.61 5.27-.56-.4-1.09-.85-1.58-1.34-2.35-2.35-3.81-5.6-3.81-9.19s1.46-6.84 3.81-9.19 5.6-3.81 9.19-3.81 6.84 1.46 9.19 3.81z" fill="#69d6f4"/></g><g><path d="m34 24.26c2.65.68 4.76 2.68 5.61 5.27-2.14 1.55-4.77 2.47-7.61 2.47s-5.47-.92-7.61-2.47c.85-2.59 2.96-4.59 5.61-5.27.64-.17 1.31-.26 2-.26s1.36.09 2 .26z" fill="#fc6e51"/></g><g><path d="m34 14v10.26c-.64-.17-1.31-.26-2-.26s-1.36.09-2 .26v-10.26c0-.55.22-1.05.59-1.41.36-.37.86-.59 1.41-.59 1.1 0 2 .9 2 2z" fill="#ff826e"/></g></g><g><path d="m55 33h-10v10h10zm-2 8h-6v-6h6z"/><path d="m55 45h-10v10h10zm-2 8h-6v-6h6z"/><path d="m19 33h-10v22h10zm-2 2v2h-6v-2zm-6 10v-2h6v2zm6 2v2h-6v-2zm-6-6v-2h6v2zm0 12v-2h6v2z"/><path d="m41 49h-18v6h18zm-2 4h-14v-2h14z"/><path d="m41 41h-18v6h18zm-2 4h-14v-2h14z"/><path d="m58 25h-9.05c.668-1.88 1.05-3.894 1.05-6 0-9.925-8.075-18-18-18s-18 8.075-18 18c0 2.106.383 4.12 1.05 6h-9.05c-2.757 0-5 2.243-5 5v28c0 2.757 2.243 5 5 5h52c2.757 0 5-2.243 5-5v-28c0-2.757-2.243-5-5-5zm-12.051-7c-.221-3.108-1.455-5.934-3.381-8.154l1.413-1.414c2.285 2.587 3.74 5.91 3.968 9.568zm-12.949 5.062c-.33-.037-.662-.062-1-.062s-.67.025-1 .062v-9.062c0-.551.448-1 1-1s1 .449 1 1zm-1 1.938c2.789 0 5.254 1.647 6.371 4.151-1.849 1.164-4.029 1.849-6.371 1.849s-4.522-.685-6.371-1.849c1.117-2.504 3.582-4.151 6.371-4.151zm-9.154 4.568c2.22 1.926 5.047 3.16 8.154 3.381v2c-3.658-.228-6.981-1.683-9.567-3.967zm10.154 3.381c3.108-.221 5.934-1.455 8.154-3.381l1.413 1.414c-2.587 2.284-5.91 3.74-9.567 3.967zm7.014-5.043c-1.055-2.073-2.86-3.63-5.014-4.389v-9.517c0-1.654-1.346-3-3-3s-3 1.346-3 3v9.517c-2.153.759-3.958 2.316-5.014 4.389-2.44-2.198-3.986-5.371-3.986-8.906 0-6.617 5.383-12 12-12s12 5.383 12 12c0 3.535-1.546 6.708-3.986 8.906zm1.14-19.474c-2.22-1.926-5.047-3.16-8.154-3.381v-2c3.658.228 6.981 1.683 9.567 3.967zm-10.154-3.381c-3.108.221-5.934 1.455-8.154 3.381l-1.413-1.414c2.587-2.284 5.91-3.74 9.567-3.967zm-9.568 4.795c-1.926 2.22-3.16 5.047-3.381 8.154h-2c.228-3.658 1.683-6.981 3.968-9.568zm-3.381 10.154c.221 3.108 1.455 5.934 3.381 8.154l-1.413 1.414c-2.285-2.587-3.74-5.91-3.968-9.568zm13.949 17c5.313 0 10.08-2.327 13.378-6h11.622v26h-50v-26h11.622c3.298 3.673 8.065 6 13.378 6zm11.982-7.432-1.413-1.414c1.926-2.22 3.16-5.047 3.381-8.154h2c-.229 3.658-1.684 6.981-3.968 9.568zm17.018 28.432c0 1.654-1.346 3-3 3h-52c-1.654 0-3-1.346-3-3v-28c0-1.654 1.346-3 3-3h9.899c.344.69.717 1.363 1.144 2h-10.043c-1.103 0-2 .897-2 2v26c0 1.103.897 2 2 2h50c1.103 0 2-.897 2-2v-26c0-1.103-.897-2-2-2h-10.044c.427-.637.8-1.31 1.144-2h9.9c1.654 0 3 1.346 3 3z"/></g></g></svg>