<svg id="Layer_5" enable-background="new 0 0 64 64" height="512" viewBox="0 0 64 64" width="512" xmlns="http://www.w3.org/2000/svg"><g><g><g><path d="m23 4.45v6.23c-4.66 1.65-8 6.09-8 11.32h-6c0-8.57 5.99-15.74 14-17.55z" fill="#838f9b"/></g><g><path d="m46.99 21.34v.01c-.34.19-.67.41-.98.65h-5.01c0-5.22-3.34-9.67-8-11.32v-6.23c7.81 1.77 13.69 8.62 13.99 16.89z" fill="#838f9b"/></g><g><path d="m33 10.68v11.32h-10v-11.32-6.23-.45c0-1.1.9-2 2-2h6c1.1 0 2 .9 2 2v.45z" fill="#aab2bd"/></g><g><path d="m48 50v4h-40c-1.1 0-2-.9-2-2v-2h3 11 11z" fill="#ccd1d9"/></g><g><path d="m41 22h5.01c-.38.28-.74.59-1.08.93-.88.88-1.59 1.92-2.09 3.07h-.01-4.83-20-12v-2c0-1.1.9-2 2-2h1 6 8 10z" fill="#ccd1d9"/></g><g><path d="m62 30v1l-1.55 1.03c-2.78 1.86-4.45 4.98-4.45 8.32v15.65h-8v-2-4-9.65c0-2.76-1.14-5.37-3.11-7.24-.41-.4-.86-.76-1.34-1.08l-1.55-1.03v-1c0-1.42.3-2.78.84-4 .5-1.15 1.21-2.19 2.09-3.07.34-.34.7-.65 1.08-.93.31-.24.64-.46.98-.65 1.47-.86 3.18-1.35 5.01-1.35 5.52 0 10 4.48 10 10z" fill="#fcd770"/></g><g><ellipse cx="52" cy="27" fill="#e6e9ed" rx="6" ry="3"/></g><g><path d="m56 56v2c0 1.1-.45 2.1-1.17 2.83-.73.72-1.73 1.17-2.83 1.17-2.21 0-4-1.79-4-4v-2z" fill="#ffc729"/></g><g><path d="m38 26v2c0 1.1-.9 2-2 2h-2-11-3c-1.1 0-2-.9-2-2v-2z" fill="#b4dd7f"/></g><g><path d="m44.89 33.11c-.41-.4-.86-.76-1.34-1.08l-1.55-1.03v-1c0-1.42.3-2.78.84-4h-.01-4.83v2c0 1.1-.9 2-2 2h-2-11-3c-1.1 0-2-.9-2-2v-2h-12c-2.21 0-4 1.79-4 4v16c0 2.21 1.79 4 4 4h3 11 11 17v-9.65c0-2.76-1.14-5.37-3.11-7.24z" fill="#69d6f4"/></g></g><g><path d="m52 23c-3.991 0-7 1.72-7 4s3.009 4 7 4 7-1.72 7-4-3.009-4-7-4zm0 6c-3.052 0-5-1.185-5-2s1.948-2 5-2 5 1.185 5 2-1.948 2-5 2z"/><path d="m52 19c-1.461 0-2.853.292-4.129.811-.886-7.688-6.393-14.109-13.904-16.138-.165-1.499-1.424-2.673-2.967-2.673h-6c-1.543 0-2.802 1.175-2.967 2.674-7.975 2.146-13.568 9.085-13.991 17.326h-.042c-1.654 0-3 1.346-3 3v1.101c-2.279.465-4 2.485-4 4.899v16c0 2.414 1.721 4.434 4 4.899v1.101c0 1.654 1.346 3 3 3h39v3c0 2.757 2.243 5 5 5s5-2.243 5-5v-17.648c0-3.017 1.498-5.815 4.008-7.488l1.992-1.329v-1.535c0-6.065-4.935-11-11-11zm-6.054 1.826c-.085.056-.167.116-.25.174h-3.735c-.375-4.853-3.456-9.116-7.961-10.994v-4.253c6.687 2.051 11.463 8.043 11.946 15.073zm-5.996.174h-5.95v-8.793c3.344 1.709 5.606 5.032 5.95 8.793zm-14.95-18h6c.551 0 1 .449 1 1v17h-8v-17c0-.551.449-1 1-1zm-8.95 18c.344-3.761 2.606-7.084 5.95-8.793v8.793zm5.95-15.246v4.252c-4.504 1.879-7.586 6.141-7.961 10.994h-3.997c.41-7.137 5.151-13.171 11.958-15.246zm-14 17.246h35.521c-.507.613-.941 1.286-1.307 2h-35.214v-1c0-.551.449-1 1-1zm11 4h18v1c0 .551-.449 1-1 1h-16c-.551 0-1-.449-1-1zm-16 19v-16c0-1.654 1.346-3 3-3h11v1c0 1.654 1.346 3 3 3h16c1.654 0 3-1.346 3-3v-1h2.426c-.271.955-.426 1.959-.426 3v1.535l1.992 1.328c.146.097.276.211.415.316l-13.114 13.114 1.414 1.414 13.158-13.158c1.357 1.604 2.135 3.643 2.135 5.803v8.648h-41c-1.654 0-3-1.346-3-3zm5 7c-.551 0-1-.448-1-1v-1h40v2zm44 8c-1.654 0-3-1.346-3-3v-1h6v1c0 1.654-1.346 3-3 3zm9-30.535-1.102.734c-3.067 2.044-4.898 5.466-4.898 9.153v14.648h-6v-14.648c0-3.687-1.831-7.108-4.898-9.152l-1.102-.735v-.465c0-4.962 4.038-9 9-9s9 4.038 9 9z"/><path d="m51 43h2v2h-2z"/><path d="m51 47h2v2h-2z"/><path d="m51 51h2v2h-2z"/><path d="m26 17h4v2h-4z"/><path d="m26 13h4v2h-4z"/><path d="m26 9h4v2h-4z"/><path d="m26 5h4v2h-4z"/><path d="m6.101 39h19.799v2h-19.799z" transform="matrix(.707 -.707 .707 .707 -23.598 23.029)"/><path d="m17.101 39h19.799v2h-19.799z" transform="matrix(.707 -.707 .707 .707 -20.376 30.808)"/></g></g></svg>