<svg id="Layer_5" enable-background="new 0 0 64 64" height="512" viewBox="0 0 64 64" width="512" xmlns="http://www.w3.org/2000/svg"><g><g><g><path d="m30 16h8v12h-8z" fill="#ffc729"/></g><g><path d="m62 20v8h-24v-12h20c2.21 0 4 1.79 4 4z" fill="#fcd770"/></g><g><circle cx="48" cy="22" fill="#ff826e" r="2"/></g><g><circle cx="56" cy="22" fill="#ff826e" r="2"/></g><g><path d="m30 62c-2.21 0-4-1.79-4-4v-12c2.21 0 4-1.79 4-4v-14h8 24v30c0 2.21-1.79 4-4 4z" fill="#ffeaa7"/></g><g><path d="m45 34c4.76 0 8.8 3.01 10.34 7.24h-.01c-.42-.14-.86-.24-1.33-.24-1.03 0-1.96.39-2.67 1.03-1.12-2.38-3.52-4.03-6.33-4.03-3.87 0-7 3.13-7 7s3.13 7 7 7c2.8 0 5.21-1.64 6.33-4.02.71.63 1.65 1.02 2.67 1.02.47 0 .91-.1 1.33-.24h.01c-1.54 4.23-5.58 7.24-10.34 7.24-6.08 0-11-4.92-11-11s4.92-11 11-11z" fill="#e6e9ed"/></g><g><path d="m54 41c.47 0 .91.1 1.33.24h.01c.43 1.17.66 2.44.66 3.76s-.23 2.59-.66 3.76h-.01c-.42.14-.86.24-1.33.24-1.02 0-1.96-.39-2.67-1.02-.82-.73-1.33-1.8-1.33-2.98s.51-2.25 1.33-2.97c.71-.64 1.64-1.03 2.67-1.03z" fill="#ccd1d9"/></g><g><path d="m50 45c0 1.18.51 2.25 1.33 2.98-1.12 2.38-3.53 4.02-6.33 4.02-3.87 0-7-3.13-7-7s3.13-7 7-7c2.81 0 5.21 1.65 6.33 4.03-.82.72-1.33 1.79-1.33 2.97z" fill="#69d6f4"/></g><g><path d="m30 28v14c0 2.21-1.79 4-4 4h-20c-2.21 0-4-1.79-4-4v-36c0-2.21 1.79-4 4-4h20c2.21 0 4 1.79 4 4v10z" fill="#969faa"/></g><g><path d="m21 39v2c0 .55-.45 1-1 1h-8c-.55 0-1-.45-1-1v-2c0-.55.45-1 1-1h8c.55 0 1 .45 1 1z" fill="#e6e9ed"/></g><g><path d="m26 11v22c0 .55-.45 1-1 1h-18c-.55 0-1-.45-1-1v-22c0-.55.45-1 1-1h18c.55 0 1 .45 1 1z" fill="#69d6f4"/></g><g><path d="m22 16v4h-2v8h-8v-8h-2v-4h4c0 .55.22 1.05.59 1.41.36.37.86.59 1.41.59s1.05-.22 1.41-.59c.37-.36.59-.86.59-1.41z" fill="#b4dd7f"/></g></g><g><path d="m20 37h-8c-1.103 0-2 .897-2 2v2c0 1.103.897 2 2 2h8c1.103 0 2-.897 2-2v-2c0-1.103-.897-2-2-2zm-8 4v-2h8l.001 2z"/><path d="m15 5h6v2h-6z"/><path d="m11 5h2v2h-2z"/><path d="m27 33v-22c0-1.103-.897-2-2-2h-18c-1.103 0-2 .897-2 2v22c0 1.103.897 2 2 2h18c1.103 0 2-.897 2-2zm-20 0v-22h18l.001 22z"/><path d="m17 16c0 .551-.449 1-1 1s-1-.449-1-1v-1h-6v6h2v8h10v-8h2v-6h-6zm1.829 1h2.171v2h-2v8h-6v-8h-2v-2h2.171c.413 1.164 1.525 2 2.829 2s2.416-.836 2.829-2z"/><path d="m58 15h-27v-9c0-2.757-2.243-5-5-5h-20c-2.757 0-5 2.243-5 5v36c0 2.757 2.243 5 5 5h19v11c0 2.757 2.243 5 5 5h28c2.757 0 5-2.243 5-5v-38c0-2.757-2.243-5-5-5zm3 5v7h-22v-10h19c1.654 0 3 1.346 3 3zm-24-3v10h-6v-10zm-34 25v-36c0-1.654 1.346-3 3-3h20c1.654 0 3 1.346 3 3v36c0 1.654-1.346 3-3 3h-20c-1.654 0-3-1.346-3-3zm55 19h-28c-1.654 0-3-1.346-3-3v-11.101c2.279-.465 4-2.484 4-4.899v-13h30v29c0 1.654-1.346 3-3 3z"/><path d="m56 25c1.654 0 3-1.346 3-3s-1.346-3-3-3-3 1.346-3 3 1.346 3 3 3zm0-4c.551 0 1 .449 1 1s-.449 1-1 1-1-.449-1-1 .449-1 1-1z"/><path d="m48 25c1.654 0 3-1.346 3-3s-1.346-3-3-3-3 1.346-3 3 1.346 3 3 3zm0-4c.551 0 1 .449 1 1s-.449 1-1 1-1-.449-1-1 .449-1 1-1z"/><path d="m45 33c-6.617 0-12 5.383-12 12s5.383 12 12 12 12-5.383 12-12-5.383-12-12-12zm9.559 14.933c-.191.041-.378.067-.559.067-1.654 0-3-1.346-3-3s1.346-3 3-3c.181 0 .368.026.559.067.286.928.441 1.913.441 2.933s-.155 2.005-.441 2.933zm-4.447.172c-1.08 1.773-3.017 2.895-5.112 2.895-3.309 0-6-2.691-6-6s2.691-6 6-6c2.085 0 4.014 1.11 5.097 2.868-.683.862-1.097 1.952-1.097 3.132 0 1.179.427 2.25 1.112 3.105zm-5.112 6.895c-5.514 0-10-4.486-10-10s4.486-10 10-10c3.695 0 6.92 2.019 8.651 5.007-.721.04-1.398.24-2.003.563-1.47-2.199-3.966-3.57-6.648-3.57-4.411 0-8 3.589-8 8s3.589 8 8 8c2.696 0 5.206-1.383 6.673-3.602.604.321 1.276.52 1.995.568-1.728 3.003-4.962 5.034-8.668 5.034z"/><path d="m57 57h2v2h-2z"/><path d="m29 57h2v2h-2z"/><path d="m57 31h2v2h-2z"/></g></g></svg>