<svg id="Layer_5" enable-background="new 0 0 64 64" height="512" viewBox="0 0 64 64" width="512" xmlns="http://www.w3.org/2000/svg"><g><g><g><path d="m6 58h26v4h-26z" fill="#838f9b"/></g><g><path d="m32 58h-26l2.43-1.46c.79-.48 1.44-1.14 1.88-1.93.45-.78.69-1.68.69-2.61h4 8 4c0 1.86.98 3.59 2.57 4.54z" fill="#969faa"/></g><g><path d="m15 44h8v8h-8z" fill="#aab2bd"/></g><g><path d="m6 44c-2.21 0-4-1.79-4-4v-34c0 2.21 1.79 4 4 4h26c2.21 0 4-1.79 4-4v34c0 2.21-1.79 4-4 4h-5-4-8z" fill="#aab2bd"/></g><g><path d="m32 2c2.21 0 4 1.79 4 4s-1.79 4-4 4h-26c-2.21 0-4-1.79-4-4s1.79-4 4-4z" fill="#ffeaa7"/></g><g><path d="m19 14c7.18 0 13 5.82 13 13s-5.82 13-13 13-13-5.82-13-13 5.82-13 13-13z" fill="#69d6f4"/></g><g><path d="m19 20c3.87 0 7 3.13 7 7s-3.13 7-7 7-7-3.13-7-7 3.13-7 7-7z" fill="#4fc1e9"/></g><g><circle cx="19" cy="27" fill="#3bafda" r="3"/></g><g><path d="m56.73 13.27c7.03 7.03 7.03 18.43 0 25.46l-2.83-2.83c5.47-5.47 5.47-14.33 0-19.8z" fill="#ff826e"/></g><g><path d="m51.07 18.93c3.91 3.9 3.91 10.24 0 14.14l-2.83-2.83c2.35-2.34 2.35-6.14 0-8.48z" fill="#ff826e"/></g><g><circle cx="44" cy="26" fill="#ff826e" r="2"/></g></g><g><path d="m19 23c-2.206 0-4 1.794-4 4s1.794 4 4 4 4-1.794 4-4-1.794-4-4-4zm0 6c-1.103 0-2-.897-2-2s.897-2 2-2 2 .897 2 2-.897 2-2 2z"/><path d="m19 19c-4.411 0-8 3.589-8 8s3.589 8 8 8 8-3.589 8-8-3.589-8-8-8zm0 14c-3.309 0-6-2.691-6-6s2.691-6 6-6 6 2.691 6 6-2.691 6-6 6z"/><path d="m19 13c-7.72 0-14 6.28-14 14s6.28 14 14 14 14-6.28 14-14-6.28-14-14-14zm0 26c-6.617 0-12-5.383-12-12s5.383-12 12-12 12 5.383 12 12-5.383 12-12 12z"/><path d="m5 13h2v2h-2z"/><path d="m5 39h2v2h-2z"/><path d="m31 39h2v2h-2z"/><path d="m31 13h2v2h-2z"/><path d="m9 5h2v2h-2z"/><path d="m18 5h2v2h-2z"/><path d="m27 5h2v2h-2z"/><path d="m60 47h-31c-.551 0-1-.448-1-1v-1h4c2.757 0 5-2.243 5-5v-34c0-2.757-2.243-5-5-5h-26c-2.757 0-5 2.243-5 5v34c0 2.757 2.243 5 5 5h8v6h-4v1c0 1.501-.8 2.914-2.086 3.687l-2.914 1.747v5.566h28v-5.566l-2.913-1.747c-1.287-.773-2.087-2.186-2.087-3.687v-1h-4v-6h2v1c0 1.654 1.346 3 3 3h31c.551 0 1 .448 1 1s-.449 1-1 1h-23c-1.654 0-3 1.346-3 3s1.346 3 3 3h20v-2h-20c-.551 0-1-.448-1-1s.449-1 1-1h23c1.654 0 3-1.346 3-3s-1.346-3-3-3zm-54-44h26c1.654 0 3 1.346 3 3s-1.346 3-3 3h-26c-1.654 0-3-1.346-3-3s1.346-3 3-3zm-3 37v-30.026c.838.635 1.87 1.026 3 1.026h26c1.13 0 2.162-.391 3-1.026v30.026c0 1.654-1.346 3-3 3h-26c-1.654 0-3-1.346-3-3zm4 21v-2h24v2zm21.471-4h-18.941c1.274-.979 2.132-2.42 2.389-4h14.162c.257 1.58 1.115 3.021 2.39 4zm-6.471-6h-6v-6h6z"/><path d="m44 29c1.654 0 3-1.346 3-3s-1.346-3-3-3-3 1.346-3 3 1.346 3 3 3zm0-4c.551 0 1 .449 1 1s-.449 1-1 1-1-.449-1-1 .449-1 1-1z"/><path d="m47.536 29.536-.707.707 4.243 4.243.707-.707c4.289-4.289 4.289-11.268 0-15.557l-.707-.707-4.243 4.243.707.707c1.949 1.949 1.949 5.121 0 7.071zm2.07-7.728 1.426-1.426c2.618 3.272 2.618 7.964 0 11.236l-1.426-1.426c1.854-2.475 1.854-5.909 0-8.384z"/><path d="m53.192 35.192-.707.707 4.243 4.242.707-.707c7.408-7.408 7.408-19.461 0-26.87l-.707-.707-4.243 4.243.707.707c5.069 5.069 5.069 13.317 0 18.385zm3.516-20.485c5.712 6.42 5.712 16.167 0 22.586l-1.417-1.417c4.936-5.636 4.936-14.116 0-19.752z"/></g></g></svg>