<svg id="Layer_5" enable-background="new 0 0 64 64" height="512" viewBox="0 0 64 64" width="512" xmlns="http://www.w3.org/2000/svg"><g><g><g><path d="m58 20h-52c-2.21 0-4 1.79-4 4v26h60v-26c0-2.21-1.79-4-4-4z" fill="#aab2bd"/></g><g><path d="m62 50v8c0 2.21-1.79 4-4 4h-52c-2.21 0-4-1.79-4-4v-8z" fill="#ccd1d9"/></g><g><path d="m52 30v10c0 2.21-1.79 4-4 4h-46v-18h46c2.21 0 4 1.79 4 4z" fill="#e6e9ed"/></g><g><path d="m24 54h16v4h-16z" fill="#69d6f4"/></g><g><circle cx="48" cy="56" fill="#fcd770" r="2"/></g><g><circle cx="56" cy="56" fill="#fcd770" r="2"/></g><g><path d="m61 7.21-2.67 2.79c-5.15-5.4-13.51-5.4-18.66 0l-2.67-2.79c6.63-6.95 17.37-6.95 24 0z" fill="#ff826e"/></g><g><path d="m56 13.05-2.8 2.95c-2.32-2.44-6.08-2.44-8.4 0l-2.8-2.95c3.87-4.07 10.13-4.07 14 0z" fill="#ff826e"/></g><g><circle cx="49" cy="20" fill="#ff826e" r="2"/></g><g><path d="m22 31v8c0 .55-.45 1-1 1h-14c-.55 0-1-.45-1-1v-8c0-.55.45-1 1-1h14c.55 0 1 .45 1 1z" fill="#69d6f4"/></g><g><circle cx="43" cy="35" fill="#fc6e51" r="5"/></g></g><g><path d="m40.391 10.69c2.302-2.412 5.359-3.74 8.609-3.74s6.308 1.328 8.609 3.74l.724.758 4.05-4.242-.659-.69c-3.396-3.557-7.914-5.516-12.723-5.516 0 0 0 0-.001 0-4.809 0-9.327 1.959-12.724 5.516l-.659.69 4.05 4.242zm8.61-7.69c3.945 0 7.673 1.494 10.598 4.226l-1.291 1.353c-2.582-2.348-5.85-3.628-9.308-3.628s-6.726 1.281-9.308 3.628l-1.291-1.353c2.925-2.732 6.655-4.226 10.6-4.226z"/><path d="m41.275 12.363-.654.689 4.179 4.4.725-.764c.932-.98 2.166-1.52 3.476-1.52s2.544.54 3.476 1.52l.725.764 4.179-4.4-.654-.689c-2.063-2.169-4.806-3.363-7.727-3.363s-5.664 1.194-7.725 3.363zm11.872 2.241c-1.191-.931-2.632-1.435-4.147-1.435s-2.956.504-4.147 1.435l-1.44-1.516c1.577-1.353 3.53-2.088 5.587-2.088s4.01.735 5.588 2.087z"/><path d="m58 19h-6.184c-.414-1.161-1.514-2-2.816-2s-2.402.839-2.816 2h-40.184c-2.757 0-5 2.243-5 5v34c0 2.757 2.243 5 5 5h52c2.757 0 5-2.243 5-5v-34c0-2.757-2.243-5-5-5zm-9 0c.552 0 1 .449 1 1s-.448 1-1 1-1-.449-1-1 .448-1 1-1zm-43 2h40.184c.414 1.161 1.514 2 2.816 2s2.402-.839 2.816-2h6.184c1.654 0 3 1.346 3 3v25h-58v-4h45c2.757 0 5-2.243 5-5v-10c0-2.757-2.243-5-5-5h-45v-1c0-1.654 1.346-3 3-3zm-3 22v-16h45c1.654 0 3 1.346 3 3v10c0 1.654-1.346 3-3 3zm55 18h-52c-1.654 0-3-1.346-3-3v-7h58v7c0 1.654-1.346 3-3 3z"/><path d="m23 59h18v-6h-18zm2-4h14v2h-14z"/><path d="m56 53c-1.654 0-3 1.346-3 3s1.346 3 3 3 3-1.346 3-3-1.346-3-3-3zm0 4c-.552 0-1-.449-1-1s.448-1 1-1 1 .449 1 1-.448 1-1 1z"/><path d="m48 53c-1.654 0-3 1.346-3 3s1.346 3 3 3 3-1.346 3-3-1.346-3-3-3zm0 4c-.552 0-1-.449-1-1s.448-1 1-1 1 .449 1 1-.448 1-1 1z"/><path d="m43 29c-3.309 0-6 2.691-6 6s2.691 6 6 6 6-2.691 6-6-2.691-6-6-6zm1 9.858v-5.858h-2v5.858c-1.721-.447-3-2-3-3.858 0-2.206 1.794-4 4-4s4 1.794 4 4c0 1.858-1.279 3.411-3 3.858z"/><path d="m21 29h-14c-1.103 0-2 .897-2 2v8c0 1.103.897 2 2 2h14c1.103 0 2-.897 2-2v-8c0-1.103-.897-2-2-2zm-14 10v-8h14l.001 8z"/></g></g></svg>